<svg xmlns="http://www.w3.org/2000/svg" width="118.364" height="96" viewBox="0 0 118.364 96">
  <g id="undraw_business_deal_re_up4u" transform="translate(0 0)">
    <path id="Path_258" data-name="Path 258" d="M724.437,241.247a75.292,75.292,0,0,1-5.114,20.811A68.668,68.668,0,0,1,705.9,283.768l-.3-.261a68.363,68.363,0,0,0,13.362-21.615,73.65,73.65,0,0,0,5.262-23.081l.382.064Q724.545,240.052,724.437,241.247Z" transform="translate(-629.944 -223.76)" fill="#f2f2f2"/>
    <path id="Path_259" data-name="Path 259" d="M701.276,505.459c-7.562,12.031-16.737,20.628-25.834,24.205l-.184-.337c9.034-3.553,18.155-12.105,25.683-24.082Z" transform="translate(-604.334 -448.626)" fill="#f2f2f2"/>
    <path id="Path_260" data-name="Path 260" d="M723.26,295.31a75.294,75.294,0,0,1-5.114,20.811,68.669,68.669,0,0,1-13.423,21.711l-.3-.261a68.365,68.365,0,0,0,13.362-21.615,73.648,73.648,0,0,0,5.261-23.081l.382.064Q723.369,294.116,723.26,295.31Z" transform="translate(-628.951 -269.389)" fill="#f2f2f2"/>
    <path id="Path_261" data-name="Path 261" d="M249.859,369.92H244.9a.7.7,0,0,1-.551-.266.688.688,0,0,1-.135-.584,13.494,13.494,0,0,0-.087-6.324.7.7,0,0,1,.273-.739c2.551-1.835,4.561-1.782,5.972.159a.705.705,0,0,1,.123.3,22.082,22.082,0,0,1,.062,6.853A.7.7,0,0,1,249.859,369.92Z" transform="translate(-240.447 -326.606)" fill="#e6e6e6"/>
    <path id="Path_262" data-name="Path 262" d="M259.972,384.265h-1.707a.356.356,0,0,1,0-.712h1.707a.356.356,0,0,1,0,.712Z" transform="translate(-252.099 -345.92)" fill="#fff"/>
    <path id="Path_263" data-name="Path 263" d="M259.972,392.265h-1.707a.356.356,0,0,1,0-.712h1.707a.356.356,0,0,1,0,.712Z" transform="translate(-252.099 -352.672)" fill="#fff"/>
    <path id="Path_264" data-name="Path 264" d="M259.972,400.265h-1.707a.356.356,0,0,1,0-.712h1.707a.356.356,0,0,1,0,.712Z" transform="translate(-252.099 -359.424)" fill="#fff"/>
    <path id="Path_265" data-name="Path 265" d="M827.859,511.92H822.9a.7.7,0,0,1-.552-.266.688.688,0,0,1-.135-.584,13.493,13.493,0,0,0-.087-6.324.7.7,0,0,1,.273-.739c2.551-1.835,4.561-1.782,5.972.159a.706.706,0,0,1,.124.3,22.083,22.083,0,0,1,.062,6.853A.7.7,0,0,1,827.859,511.92Z" transform="translate(-728.271 -446.452)" fill="#e6e6e6"/>
    <path id="Path_266" data-name="Path 266" d="M837.972,526.265h-1.707a.356.356,0,0,1,0-.712h1.707a.356.356,0,1,1,0,.712Z" transform="translate(-739.922 -465.766)" fill="#fff"/>
    <path id="Path_267" data-name="Path 267" d="M837.972,534.265h-1.707a.356.356,0,1,1,0-.712h1.707a.356.356,0,1,1,0,.712Z" transform="translate(-739.922 -472.518)" fill="#fff"/>
    <path id="Path_268" data-name="Path 268" d="M837.972,542.265h-1.707a.356.356,0,0,1,0-.712h1.707a.356.356,0,1,1,0,.712Z" transform="translate(-739.922 -479.27)" fill="#fff"/>
    <path id="Path_269" data-name="Path 269" d="M339.029,755.469a.185.185,0,0,1-.186.186H220.851a.186.186,0,0,1,0-.371H338.843a.185.185,0,0,1,.186.186Z" transform="translate(-220.665 -659.655)" fill="#ccc"/>
    <path id="Path_270" data-name="Path 270" d="M383.132,652.38l-.309-4.3a13.924,13.924,0,0,0-6.537-1.466c3.188,2.464,2.932,7.389,5.14,10.759a8.375,8.375,0,0,0,6.245,3.7l2.653,1.526a14.034,14.034,0,0,0-3.268-11.287,13.558,13.558,0,0,0-2.554-2.246C383.923,650.728,383.132,652.38,383.132,652.38Z" transform="translate(-352.007 -567.933)" fill="#f2f2f2"/>
    <path id="Path_271" data-name="Path 271" d="M740.074,656.38l.31-4.3a13.923,13.923,0,0,1,6.537-1.466c-3.188,2.464-2.932,7.388-5.14,10.759a8.375,8.375,0,0,1-6.245,3.7l-2.653,1.526a14.033,14.033,0,0,1,3.268-11.287,13.553,13.553,0,0,1,2.554-2.246C739.283,654.728,740.074,656.38,740.074,656.38Z" transform="translate(-652.835 -571.309)" fill="#f2f2f2"/>
    <circle id="Ellipse_136" data-name="Ellipse 136" cx="2.964" cy="2.964" r="2.964" transform="translate(54.813 30.57)" fill="#6c63ff"/>
    <path id="Path_272" data-name="Path 272" d="M585.579,349a.24.24,0,0,0-.331,0,9.82,9.82,0,0,0-1.682,1.718l-.36-.7c-.138-.268-.542-.031-.4.236l.526,1.018a.237.237,0,0,0,.4,0,9.478,9.478,0,0,1,1.847-1.945A.235.235,0,0,0,585.579,349Z" transform="translate(-526.279 -316.703)" fill="#fff"/>
    <path id="Path_273" data-name="Path 273" d="M481.8,358.184l-4.47-7.02,5.176-2.772,1.359,5.356,9.572,5.173a2.07,2.07,0,1,1-1.178,2.816Z" transform="translate(-437.289 -316.245)" fill="#a0616a"/>
    <path id="Path_274" data-name="Path 274" d="M455.052,302.012c-1.4,2.062,3.587,9.558,3.587,9.558.243-.524,2.568,5.362,2.957,5.014,1.107-.988,2.839-3.741,3.8-3.863.551-.07-1.277-3.975-1.277-3.975s-.835-2.306-1.969-5.251a5.289,5.289,0,0,0-3.842-3.36A3.769,3.769,0,0,0,455.052,302.012Z" transform="translate(-418.274 -275.512)" fill="#3f3d56"/>
    <path id="Path_275" data-name="Path 275" d="M236.172,556.194H238.3l1.01-8.188h-3.133Z" transform="translate(-199.326 -462.508)" fill="#a0616a"/>
    <path id="Path_276" data-name="Path 276" d="M453.368,733.253h.6l2.333-.949,1.25.949h0a2.664,2.664,0,0,1,2.664,2.664V736h-6.845Z" transform="translate(-417.063 -640.26)" fill="#2f2e41"/>
    <path id="Path_277" data-name="Path 277" d="M299.389,556.194h2.123l1.01-8.188h-3.133Z" transform="translate(-252.68 -462.508)" fill="#a0616a"/>
    <path id="Path_278" data-name="Path 278" d="M516.585,733.253h.6l2.333-.949,1.25.949h0a2.664,2.664,0,0,1,2.664,2.664V736h-6.845Z" transform="translate(-470.417 -640.26)" fill="#2f2e41"/>
    <path id="Path_279" data-name="Path 279" d="M438.789,455.889l-13.808.345c-2.623,1.424-2.662,4.507-1.8,8.168,0,0-.29,2.176.29,2.756s.87.58.58,1.6,1.243,2.674,1.056,2.86a7.5,7.5,0,0,0-.621,1.2l1.45,8.267s1.015,14.359,1.305,14.649.58,0,.29.725-.58.435-.29.725a10.7,10.7,0,0,1,.725.87h3.507s.264-1.45.264-1.6.29-1.015.29-1.16-.256-.4-.256-.4a4.767,4.767,0,0,1-.179-.9c0-.29-.87-11.458-.87-11.458l1.74-14.5,4.206,14.214s0,12.473.29,12.764.29.145.145.725-.725.435-.29.87.58-.29.435.435l-.145.725,4.351.062s.58-1.223.29-1.658-.273-.316.081-1.028.5-.857.354-1-.145-.916-.145-.916l-.725-13.878s-.145-14.649-.145-15.084a1.446,1.446,0,0,1,.12-.653v-.591l-.556-2.093Z" transform="translate(-391.161 -406.97)" fill="#2f2e41"/>
    <circle id="Ellipse_137" data-name="Ellipse 137" cx="4.29" cy="4.29" r="4.29" transform="translate(35.043 11.626)" fill="#a0616a"/>
    <path id="Path_280" data-name="Path 280" d="M427.382,278.747a4.429,4.429,0,0,1,1.795,2.587,24.511,24.511,0,0,1,1.053,5.856l.335,5.951,4.152,12.671c-3.6,3.045-17.124.692-17.124.692s-.415-.138,0-.554.819-.047.4-.463-.129.047.009-.368,0-.138-.138-.277,1.071-1.384,1.071-1.384l-1.107-7.273-1.384-14.67a13.347,13.347,0,0,1,5-3.3l.863-1.553,4.315.345Z" transform="translate(-385.903 -255.705)" fill="#3f3d56"/>
    <path id="Path_281" data-name="Path 281" d="M449.809,211.41a1.988,1.988,0,0,1,.706.992,13.97,13.97,0,0,0,.009-1.947c-.051-.456-.371-.558-.743-.677-.335-.107-.715-.228-.817-.671-1.349-1.312-3.7-1.246-5.3-.788-.884.252-1.393.575-1.438.765l-.009.039-.036.018c-.681.341-.814,1.417-.805,2.259.017,1.588.565,3.391.874,3.537.016.008.02,0,.028,0h0c.465-.372,1.032.028,1.282.246a4.462,4.462,0,0,1,4-3.785,7,7,0,0,0,.963-.161,2.028,2.028,0,0,1,.492-.065A1.4,1.4,0,0,1,449.809,211.41Z" transform="translate(-406.939 -197.774)" fill="#2f2e41"/>
    <path id="Path_282" data-name="Path 282" d="M648.246,388.547l8.253-8.381,2.174-6.7-3.5-1.415c-1.733,1.748-3.518,7.1-3.518,7.1l-5.633,7.56c-.045.017-.09.034-.134.055a1.667,1.667,0,1,0,2.356,1.783Z" transform="translate(-578.742 -336.209)" fill="#ffb8b8"/>
    <path id="Path_283" data-name="Path 283" d="M704.453,333.507l4.425,1.28.016,0c1.627-.316,2.913-3.019,3.706-5.231a3.057,3.057,0,0,0-1.656-3.831h0a3.064,3.064,0,0,0-3.2.488l-2.206,1.9Z" transform="translate(-628.975 -296.902)" fill="#6c63ff"/>
    <path id="Path_284" data-name="Path 284" d="M440.523,549.238h-2.38l-1.132-9.179h3.512Z" transform="translate(-368.831 -455.802)" fill="#ffb8b8"/>
    <path id="Path_285" data-name="Path 285" d="M642.566,730.5h-.67l-2.615-1.064-1.4,1.063h0a2.987,2.987,0,0,0-2.987,2.987v.1h7.673Z" transform="translate(-570.266 -637.839)" fill="#2f2e41"/>
    <path id="Path_286" data-name="Path 286" d="M508.206,549.238h-2.38l-1.132-9.179h3.512Z" transform="translate(-425.954 -455.802)" fill="#ffb8b8"/>
    <path id="Path_287" data-name="Path 287" d="M710.249,730.5h-.67l-2.615-1.064-1.4,1.063h0a2.987,2.987,0,0,0-2.987,2.987v.1h7.673Z" transform="translate(-627.39 -637.839)" fill="#2f2e41"/>
    <path id="Path_288" data-name="Path 288" d="M664.4,482.545a25.262,25.262,0,0,1-.417,6.53c-.695,3.2-.695,12.2-.695,12.2l-1.528,17.538-4.585-.417-1.25-29.317-4.446,9.865.417,1.389-.555.347s.416,2.709.138,2.709a3.32,3.32,0,0,0-.973.417l.556,14.311-4.724-.139-1.667-20.147,1.806-11.532.139-2.223.625.026.318-.929.585-1.6Z" transform="translate(-578.517 -428.647)" fill="#2f2e41"/>
    <path id="Path_289" data-name="Path 289" d="M678.166,319.391l.025-.035c1.323-1.852-.667-6.3-.967-6.946l1.264-.41-.285-2.419-.135-1.078.966-.966,0-.024.556-4.863.808-3.23a7.091,7.091,0,0,0-2.013-6.872l-1.868-1.761-2.27-3.359H670.59l-1.255,2.371a5.336,5.336,0,0,0-4.128,5.447l.284,6.218-1.114,7.742v1.4L663.123,312l.274,1.368-.954.409-.421,1.965a8.834,8.834,0,0,0-1.325,2.183c0,.063.046.124.146.191.784.531,5.117,1.613,7.035.846,2.043-.817,10.164.409,10.245.421Z" transform="translate(-592.046 -264.792)" fill="#6c63ff"/>
    <circle id="Ellipse_138" data-name="Ellipse 138" cx="4.848" cy="4.848" r="4.848" transform="translate(75.053 11.856)" fill="#ffb8b8"/>
    <path id="Path_290" data-name="Path 290" d="M696.635,220.6a13.186,13.186,0,0,0,2.238-.215,6.688,6.688,0,0,0,2.784-2.153h0a6.48,6.48,0,0,0,.63-2.009,5.894,5.894,0,0,0-1.151-4.651,1.862,1.862,0,0,0-.768-.622c-.027-.01-.055-.018-.083-.026a2.3,2.3,0,0,1-1.161-.677,1.9,1.9,0,0,0-.195-.191,2.83,2.83,0,0,0-1.2-.562,5,5,0,0,0-3,.632,3.176,3.176,0,0,1-1.917.108.18.18,0,0,0-.168.062,1.271,1.271,0,0,1-.854.366c-.2.014-.4.291-.636.653-.055.082-.118.178-.164.236l-.009-.11-.108.125a1.542,1.542,0,0,0,.761,2.493,3.008,3.008,0,0,0,.607.081c.124.008.252.016.375.034a2.325,2.325,0,0,1,1.766,1.463.608.608,0,0,0,.925.271,1,1,0,0,1,.911-.19.666.666,0,0,1,.3.327.869.869,0,0,0,.34.376c.5.244.568,1.381.414,2.334-.149.919-.473,1.589-.787,1.63-.242.031-.27.049-.286.093l-.015.039.028.035A.993.993,0,0,0,696.635,220.6Z" transform="translate(-617.198 -198.969)" fill="#2f2e41"/>
    <path id="Path_291" data-name="Path 291" d="M598.514,364.223l-2.33-2.969c-2.374.654-6.586,4.408-6.586,4.408l-8.65,3.754a1.666,1.666,0,1,0,1.012,2.7l11.331-3.161Z" transform="translate(-523.099 -327.1)" fill="#ffb8b8"/>
    <path id="Path_292" data-name="Path 292" d="M679.507,329.131l3.677-4.1.2-2.9a3.064,3.064,0,0,0-1.521-2.855h0a3.057,3.057,0,0,0-4.061.963c-1.3,1.958-2.7,4.605-1.978,6.1l.007.015Z" transform="translate(-604.651 -291.329)" fill="#6c63ff"/>
    <path id="Path_293" data-name="Path 293" d="M427.749,374.931l-9.557-4.894a1.508,1.508,0,0,1-.5-2.058l6.231-12.167a1.508,1.508,0,0,1,1.964-.8l9.557,4.894a1.508,1.508,0,0,1,.5,2.058l-6.231,12.167A1.508,1.508,0,0,1,427.749,374.931Z" transform="translate(-386.783 -321.723)" fill="#e6e6e6"/>
    <path id="Path_294" data-name="Path 294" d="M434.1,381.161l-6.493-3.325a1.412,1.412,0,0,1-.47-1.928l5.177-10.108a1.412,1.412,0,0,1,1.839-.745l7.842,4.016a1.412,1.412,0,0,1,.47,1.928l-2.812,5.491C437.969,379.773,436.933,382.613,434.1,381.161Z" transform="translate(-394.764 -330.202)" fill="#fff"/>
    <path id="Path_295" data-name="Path 295" d="M461.427,414.121l-5.751-2.945a.36.36,0,0,1,.324-.633l5.751,2.945a.36.36,0,0,1-.324.633Z" transform="translate(-418.884 -368.682)" fill="#6c63ff"/>
    <path id="Path_296" data-name="Path 296" d="M452.88,419.87l-1.312-.672a.36.36,0,0,1,.324-.634l1.312.672a.36.36,0,0,1-.324.634Z" transform="translate(-415.416 -375.453)" fill="#6c63ff"/>
    <path id="Path_297" data-name="Path 297" d="M451.1,429.083l-3.637-1.863a.36.36,0,0,1,.324-.634l3.637,1.863a.36.36,0,0,1-.324.634Z" transform="translate(-411.949 -382.223)" fill="#6c63ff"/>
    <path id="Path_298" data-name="Path 298" d="M476.014,385.639l-5.751-2.945a.36.36,0,0,1,.324-.633l5.751,2.945a.36.36,0,0,1-.324.634Z" transform="translate(-431.195 -344.644)" fill="#6c63ff"/>
    <path id="Path_299" data-name="Path 299" d="M467.467,391.388l-1.312-.672a.36.36,0,0,1,.324-.634l1.312.672a.36.36,0,0,1-.325.634Z" transform="translate(-427.727 -351.414)" fill="#6c63ff"/>
    <path id="Path_300" data-name="Path 300" d="M465.683,400.6l-3.637-1.863a.36.36,0,0,1,.324-.634l3.637,1.863a.36.36,0,0,1-.324.634Z" transform="translate(-424.26 -358.185)" fill="#6c63ff"/>
    <path id="Path_301" data-name="Path 301" d="M420.806,366.107l-2.159-8.037,5.769-1.092-.31,5.517,7.58,7.805a2.07,2.07,0,1,1-1.968,2.333Z" transform="translate(-387.759 -323.49)" fill="#a0616a"/>
    <path id="Path_302" data-name="Path 302" d="M410.825,300.874c-1.958,1.546.555,10.194.555,10.194.389-.427.841,5.885,1.317,5.67,1.352-.611,3.83-2.717,4.785-2.546.546.1-.026-4.175-.026-4.175s-.105-2.45-.3-5.6a5.289,5.289,0,0,0-2.658-4.357A3.769,3.769,0,0,0,410.825,300.874Z" transform="translate(-380.527 -275.307)" fill="#3f3d56"/>
    <path id="Path_303" data-name="Path 303" d="M592.965,470.646l-5.215-2.463a.816.816,0,0,1-.448-.553.8.8,0,0,1,.149-.681,15.691,15.691,0,0,0,3.029-6.592.811.811,0,0,1,.794-.654,6.638,6.638,0,0,1,5.908,2.886.821.821,0,0,1,.107.683A25.669,25.669,0,0,1,594,470.357.814.814,0,0,1,592.965,470.646Z" transform="translate(-530.083 -410.19)" fill="#e6e6e6"/>
    <path id="Path_304" data-name="Path 304" d="M610.7,493.255l-3.987-1.883a.414.414,0,0,1,.353-.748l3.987,1.883a.414.414,0,0,1-.353.748Z" transform="translate(-546.282 -436.253)" fill="#fff"/>
    <path id="Path_305" data-name="Path 305" d="M614.669,484.847l-3.987-1.883a.414.414,0,0,1,.353-.748l3.987,1.883a.414.414,0,0,1-.353.748Z" transform="translate(-549.633 -429.157)" fill="#fff"/>
    <path id="Path_306" data-name="Path 306" d="M348.825,156.849l-.371.041c-1.655-6.5-4.863-11.009-9.277-13.029-5.611-2.569-12.55-.844-19.538,4.857-7.024,5.73-13.241,14.78-17.508,25.484l-.36-.165c4.285-10.751,10.535-19.845,17.6-25.606,7.1-5.791,14.179-7.528,19.937-4.892C343.846,145.616,347.138,150.219,348.825,156.849Z" transform="translate(-289.117 -142.337)" fill="#f2f2f2"/>
    <path id="Path_307" data-name="Path 307" d="M285.137,288.653c-.971,2.045-1.894,4.163-2.744,6.3-4.893,12.276-7.372,24.812-7.169,36.255l-.382-.041c-.2-11.486,2.284-24.065,7.192-36.379.853-2.139,1.779-4.264,2.752-6.314Z" transform="translate(-266.379 -265.671)" fill="#f2f2f2"/>
    <path id="Path_308" data-name="Path 308" d="M283.96,342.716c-.971,2.045-1.894,4.163-2.744,6.3-4.893,12.276-7.372,24.812-7.169,36.255l-.382-.041c-.2-11.486,2.284-24.065,7.192-36.379.853-2.139,1.779-4.264,2.752-6.314Z" transform="translate(-265.386 -311.3)" fill="#f2f2f2"/>
    <ellipse id="Ellipse_139" data-name="Ellipse 139" cx="1.382" cy="1.591" rx="1.382" ry="1.591" transform="translate(4.883 33.873) rotate(-56.364)" fill="#ccc"/>
    <ellipse id="Ellipse_140" data-name="Ellipse 140" cx="1.382" cy="1.591" rx="1.382" ry="1.591" transform="translate(94.895 56.818) rotate(-56.364)" fill="#ccc"/>
  </g>
</svg>
