<svg id="undraw_business_deal_re_up4u" xmlns="http://www.w3.org/2000/svg" width="538.864" height="437.051" viewBox="0 0 538.864 437.051">
  <path id="Path_258" data-name="Path 258" d="M791.352,249.9c-2.8,30.843-10.774,63.364-23.281,94.743-15.467,38.8-36.6,72.983-61.11,98.841L705.6,442.3c24.394-25.734,45.429-59.762,60.831-98.406,13.92-34.922,22.2-71.263,23.954-105.079l1.738.291Q791.847,244.46,791.352,249.9Z" transform="translate(-361.163 -170.288)" fill="#f2f2f2"/>
  <path id="Path_259" data-name="Path 259" d="M793.709,506.218c-34.429,54.773-76.2,93.91-117.614,110.2l-.838-1.536c41.13-16.176,82.654-55.111,116.926-109.634Z" transform="translate(-352.372 -247.48)" fill="#f2f2f2"/>
  <path id="Path_260" data-name="Path 260" d="M790.175,303.962c-2.8,30.843-10.774,63.364-23.281,94.743-15.467,38.8-36.6,72.983-61.11,98.841l-1.36-1.186c24.393-25.734,45.428-59.762,60.83-98.405,13.919-34.922,22.2-71.263,23.953-105.079l1.738.291Q790.669,298.523,790.175,303.962Z" transform="translate(-360.822 -185.952)" fill="#f2f2f2"/>
  <path id="Path_261" data-name="Path 261" d="M270.3,402.785H247.714a3.2,3.2,0,0,1-2.51-1.209,3.131,3.131,0,0,1-.613-2.66,61.431,61.431,0,0,0-.394-28.792,3.2,3.2,0,0,1,1.243-3.365c11.615-8.354,20.763-8.112,27.189.722a3.21,3.21,0,0,1,.562,1.356,100.534,100.534,0,0,1,.282,31.2A3.19,3.19,0,0,1,270.3,402.785Z" transform="translate(-227.456 -205.593)" fill="#e6e6e6"/>
  <path id="Path_262" data-name="Path 262" d="M267.3,386.794h-7.771a1.62,1.62,0,1,1,0-3.241H267.3a1.62,1.62,0,0,1,0,3.241Z" transform="translate(-231.455 -212.223)" fill="#fff"/>
  <path id="Path_263" data-name="Path 263" d="M267.3,394.794h-7.771a1.62,1.62,0,1,1,0-3.241H267.3a1.62,1.62,0,0,1,0,3.241Z" transform="translate(-231.455 -214.541)" fill="#fff"/>
  <path id="Path_264" data-name="Path 264" d="M267.3,402.794h-7.771a1.62,1.62,0,1,1,0-3.24H267.3a1.62,1.62,0,0,1,0,3.24Z" transform="translate(-231.455 -216.859)" fill="#fff"/>
  <path id="Path_265" data-name="Path 265" d="M848.3,544.785h-22.59a3.2,3.2,0,0,1-2.511-1.209,3.132,3.132,0,0,1-.612-2.661,61.431,61.431,0,0,0-.395-28.792,3.2,3.2,0,0,1,1.243-3.366c11.615-8.354,20.763-8.112,27.189.722a3.211,3.211,0,0,1,.562,1.356,100.532,100.532,0,0,1,.281,31.2A3.189,3.189,0,0,1,848.3,544.785Z" transform="translate(-394.918 -246.734)" fill="#e6e6e6"/>
  <path id="Path_266" data-name="Path 266" d="M845.3,528.794h-7.771a1.62,1.62,0,0,1,0-3.24H845.3a1.62,1.62,0,1,1,0,3.24Z" transform="translate(-398.917 -253.365)" fill="#fff"/>
  <path id="Path_267" data-name="Path 267" d="M845.3,536.794h-7.771a1.62,1.62,0,1,1,0-3.24H845.3a1.62,1.62,0,1,1,0,3.24Z" transform="translate(-398.917 -255.683)" fill="#fff"/>
  <path id="Path_268" data-name="Path 268" d="M845.3,544.794h-7.771a1.62,1.62,0,0,1,0-3.241H845.3a1.62,1.62,0,1,1,0,3.241Z" transform="translate(-398.917 -258)" fill="#fff"/>
  <path id="Path_269" data-name="Path 269" d="M759.529,756.129a.843.843,0,0,1-.845.845H221.51a.845.845,0,0,1,0-1.691H758.684a.843.843,0,0,1,.845.845Z" transform="translate(-220.665 -319.923)" fill="#ccc"/>
  <path id="Path_270" data-name="Path 270" d="M407.455,672.891l-1.409-19.6a63.391,63.391,0,0,0-29.76-6.674c14.512,11.218,13.35,33.637,23.4,48.98a38.127,38.127,0,0,0,28.431,16.849l12.078,6.948a63.889,63.889,0,0,0-14.876-51.385,61.724,61.724,0,0,0-11.626-10.225C411.053,665.369,407.455,672.891,407.455,672.891Z" transform="translate(-265.752 -288.437)" fill="#f2f2f2"/>
  <path id="Path_271" data-name="Path 271" d="M766.184,676.891l1.409-19.6a63.385,63.385,0,0,1,29.76-6.674c-14.512,11.217-13.35,33.637-23.4,48.98a38.126,38.126,0,0,1-28.431,16.849L733.444,723.4a63.887,63.887,0,0,1,14.876-51.385,61.7,61.7,0,0,1,11.625-10.225C762.586,669.369,766.184,676.891,766.184,676.891Z" transform="translate(-369.022 -289.595)" fill="#f2f2f2"/>
  <circle id="Ellipse_136" data-name="Ellipse 136" cx="13.495" cy="13.495" r="13.495" transform="translate(249.544 139.173)" fill="#6c63ff"/>
  <path id="Path_272" data-name="Path 272" d="M595.544,349.238a1.091,1.091,0,0,0-1.507,0,44.709,44.709,0,0,0-7.658,7.822l-1.637-3.167c-.63-1.219-2.469-.142-1.84,1.075L585.3,359.6a1.078,1.078,0,0,0,1.84,0,43.156,43.156,0,0,1,8.408-8.856A1.072,1.072,0,0,0,595.544,349.238Z" transform="translate(-325.577 -202.194)" fill="#fff"/>
  <path id="Path_273" data-name="Path 273" d="M497.684,392.972l-20.35-31.959,23.565-12.62,6.185,24.384,43.579,23.549a9.423,9.423,0,1,1-5.362,12.819Z" transform="translate(-295.028 -202.036)" fill="#a0616a"/>
  <path id="Path_274" data-name="Path 274" d="M455.938,308.7c-6.394,9.388,16.329,43.513,16.329,43.513,1.107-2.386,11.689,24.409,13.461,22.826,5.037-4.5,12.923-17.03,17.306-17.588,2.507-.319-5.814-18.1-5.814-18.1s-3.8-10.5-8.962-23.907a24.08,24.08,0,0,0-17.491-15.3S462.332,299.31,455.938,308.7Z" transform="translate(-288.501 -188.054)" fill="#3f3d56"/>
  <path id="Path_275" data-name="Path 275" d="M236.174,585.285h9.665l4.6-37.279H236.172Z" transform="translate(-68.425 -158.772)" fill="#a0616a"/>
  <path id="Path_276" data-name="Path 276" d="M453.368,736.623h2.72L466.71,732.3l5.693,4.319h0a12.13,12.13,0,0,1,12.13,12.129v.395H453.369Z" transform="translate(-288.085 -313.265)" fill="#2f2e41"/>
  <path id="Path_277" data-name="Path 277" d="M299.39,585.285h9.665l4.6-37.279H299.389Z" transform="translate(-86.741 -158.772)" fill="#a0616a"/>
  <path id="Path_278" data-name="Path 278" d="M516.585,736.623h2.72l10.621-4.319,5.692,4.319h0a12.13,12.13,0,0,1,12.13,12.129v.395H516.585Z" transform="translate(-306.401 -313.265)" fill="#2f2e41"/>
  <path id="Path_279" data-name="Path 279" d="M496.026,455.889l-62.864,1.572c-11.939,6.485-12.121,20.52-8.209,37.184,0,0-1.321,9.9,1.321,12.546s3.962,2.641,2.641,7.264,5.657,12.172,4.809,13.019-2.828,5.47-2.828,5.47l6.6,37.638s4.622,65.371,5.943,66.691,2.641,0,1.32,3.3-2.641,1.981-1.32,3.3a48.73,48.73,0,0,1,3.3,3.962h15.964s1.2-6.6,1.2-7.264,1.32-4.622,1.32-5.282-1.167-1.828-1.167-1.828a21.7,21.7,0,0,1-.814-4.115c0-1.32-3.962-52.164-3.962-52.164l7.924-66.031,19.149,64.71s0,56.787,1.321,58.108,1.32.66.66,3.3-3.3,1.981-1.321,3.962,2.641-1.321,1.981,1.981l-.66,3.3,19.809.283s2.641-5.566,1.321-7.547-1.241-1.44.37-4.682,2.272-3.9,1.611-4.562-.66-4.172-.66-4.172l-3.3-63.18s-.66-66.691-.66-68.672a6.582,6.582,0,0,1,.549-2.971v-2.689l-2.529-9.528Z" transform="translate(-279.193 -233.181)" fill="#2f2e41"/>
  <circle id="Ellipse_137" data-name="Ellipse 137" cx="19.532" cy="19.532" r="19.532" transform="translate(159.537 52.926)" fill="#a0616a"/>
  <path id="Path_280" data-name="Path 280" d="M466.224,286.155c4.208,2.5,6.725,7.1,8.17,11.776a111.6,111.6,0,0,1,4.8,26.661l1.526,27.091,18.9,57.684c-16.382,13.862-77.959,3.15-77.959,3.15s-1.89-.63,0-2.52,3.73-.216,1.84-2.106-.587.216.043-1.674,0-.63-.63-1.26,4.878-6.3,4.878-6.3l-5.041-33.111-6.3-66.788c7.561-9.451,22.767-15.022,22.767-15.022l3.929-7.072,19.645,1.572Z" transform="translate(-277.388 -181.254)" fill="#3f3d56"/>
  <path id="Path_281" data-name="Path 281" d="M479.78,223.449A9.053,9.053,0,0,1,483,227.966a63.623,63.623,0,0,0,.042-8.863c-.23-2.074-1.691-2.541-3.382-3.082-1.527-.488-3.254-1.04-3.719-3.054-6.14-5.973-16.828-5.672-24.143-3.588-4.025,1.146-6.341,2.619-6.548,3.482l-.043.178-.163.082c-3.1,1.551-3.707,6.45-3.667,10.286.076,7.228,2.571,15.436,3.977,16.1.074.035.093.021.125-.005h0c2.117-1.692,4.7.129,5.834,1.118a20.315,20.315,0,0,1,18.19-17.231,31.88,31.88,0,0,0,4.384-.735,9.238,9.238,0,0,1,2.24-.294A6.374,6.374,0,0,1,479.78,223.449Z" transform="translate(-284.609 -161.367)" fill="#2f2e41"/>
  <path id="Path_282" data-name="Path 282" d="M660.012,447.162l37.573-38.155,9.9-30.516-15.93-6.443c-7.891,7.96-16.015,32.328-16.015,32.328l-25.645,34.419c-.2.076-.409.157-.61.252a7.591,7.591,0,1,0,10.728,8.115Z" transform="translate(-343.587 -208.89)" fill="#ffb8b8"/>
  <path id="Path_283" data-name="Path 283" d="M704.453,362.045l20.145,5.828.075-.015c7.405-1.438,13.263-13.744,16.873-23.814a13.919,13.919,0,0,0-7.54-17.443h0a13.949,13.949,0,0,0-14.557,2.22L709.4,337.47Z" transform="translate(-360.831 -195.397)" fill="#6c63ff"/>
  <path id="Path_284" data-name="Path 284" d="M453,581.848H442.165l-5.154-41.789H453Z" transform="translate(-126.613 -156.469)" fill="#ffb8b8"/>
  <path id="Path_285" data-name="Path 285" d="M669.827,734.277h-3.05l-11.906-4.842-6.381,4.841h0a13.6,13.6,0,0,0-13.6,13.6v.442l34.934,0Z" transform="translate(-340.677 -312.434)" fill="#2f2e41"/>
  <path id="Path_286" data-name="Path 286" d="M520.682,581.848H509.848l-5.154-41.789h15.99Z" transform="translate(-146.223 -156.469)" fill="#ffb8b8"/>
  <path id="Path_287" data-name="Path 287" d="M737.51,734.277h-3.049l-11.906-4.842-6.381,4.841h0a13.6,13.6,0,0,0-13.6,13.6v.442l34.934,0Z" transform="translate(-360.287 -312.434)" fill="#2f2e41"/>
  <path id="Path_288" data-name="Path 288" d="M734.489,486s1.265,15.181-1.9,29.73-3.162,55.522-3.162,55.522L722.47,651.1,701.6,649.2,695.9,515.73l-20.241,44.911,1.9,6.326-2.528,1.581s1.9,12.335.63,12.335-4.428,1.9-4.428,1.9l2.53,65.152-21.507-.632-7.591-91.719,8.223-52.5.633-10.12,2.846.117,1.449-4.229,2.662-7.274Z" transform="translate(-343.509 -240.622)" fill="#2f2e41"/>
  <path id="Path_289" data-name="Path 289" d="M740.227,432.94l.113-.158c6.021-8.429-3.034-28.685-4.4-31.622l5.753-1.867-1.3-11.011-.614-4.909,4.4-4.4.012-.109,2.53-22.139,3.678-14.7a32.283,32.283,0,0,0-9.163-31.286l-8.5-8.018L722.4,287.429H705.734l-5.714,10.793a24.291,24.291,0,0,0-18.795,24.8l1.3,28.308-5.07,35.246,0,6.379-5.706,6.341,1.246,6.229-4.342,1.861-1.917,8.947c-.794,1.047-6.031,8.03-6.031,9.94,0,.287.212.564.666.871,3.569,2.417,23.3,7.344,32.028,3.85,9.3-3.719,46.271,1.86,46.643,1.917Z" transform="translate(-348.154 -184.374)" fill="#6c63ff"/>
  <circle id="Ellipse_138" data-name="Ellipse 138" cx="22.071" cy="22.071" r="22.071" transform="translate(341.689 53.976)" fill="#ffb8b8"/>
  <path id="Path_290" data-name="Path 290" d="M718.434,260.254a60.033,60.033,0,0,0,10.189-.977c3.329-.767,10.674-6.446,12.675-9.8h0c1.487-2.493,2.38-6.349,2.867-9.144a26.834,26.834,0,0,0-5.241-21.174,8.476,8.476,0,0,0-3.5-2.833c-.124-.045-.251-.084-.379-.117a10.459,10.459,0,0,1-5.284-3.084,8.621,8.621,0,0,0-.888-.868,12.884,12.884,0,0,0-5.443-2.56c-3.217-.772-7.818.2-13.675,2.879-2.943,1.349-6.209.972-8.727.494a.819.819,0,0,0-.764.284,5.785,5.785,0,0,1-3.89,1.668c-.894.062-1.8,1.326-2.893,2.971-.248.373-.538.809-.748,1.075l-.042-.5-.492.571a7.02,7.02,0,0,0,3.463,11.351,13.693,13.693,0,0,0,2.764.367c.565.036,1.149.074,1.71.156a10.583,10.583,0,0,1,8.039,6.662,2.768,2.768,0,0,0,4.211,1.235,4.573,4.573,0,0,1,4.146-.866,3.034,3.034,0,0,1,1.381,1.487,3.956,3.956,0,0,0,1.546,1.712c2.3,1.111,2.588,6.286,1.885,10.625-.677,4.182-2.152,7.233-3.585,7.419-1.1.143-1.228.225-1.3.423l-.067.177.128.161A4.521,4.521,0,0,0,718.434,260.254Z" transform="translate(-356.788 -161.778)" fill="#2f2e41"/>
  <path id="Path_291" data-name="Path 291" d="M667.82,374.772l-10.609-13.518c-10.807,2.976-29.982,20.067-29.982,20.067L587.85,398.41a7.587,7.587,0,1,0,4.609,12.293l51.585-14.391Z" transform="translate(-324.485 -205.763)" fill="#ffb8b8"/>
  <path id="Path_292" data-name="Path 292" d="M693.272,365.583l16.74-18.661.929-13.223a13.951,13.951,0,0,0-6.923-13h0a13.918,13.918,0,0,0-18.49,4.383c-5.915,8.915-12.279,20.967-9,27.762l.033.069Z" transform="translate(-352.481 -193.483)" fill="#6c63ff"/>
  <path id="Path_293" data-name="Path 293" d="M464.194,446.156l-43.507-22.282c-3.095-1.585-4.12-5.789-2.285-9.371l28.368-55.39c1.835-3.582,5.845-5.208,8.94-3.623l43.507,22.282c3.095,1.585,4.12,5.789,2.285,9.371l-28.368,55.39C471.3,446.116,467.288,447.741,464.194,446.156Z" transform="translate(-277.69 -203.917)" fill="#e6e6e6"/>
  <path id="Path_294" data-name="Path 294" d="M459.5,438.823,429.94,423.685c-2.9-1.484-3.859-5.422-2.14-8.777l23.567-46.017c1.718-3.355,5.474-4.877,8.373-3.393l35.7,18.285c2.9,1.484,3.859,5.421,2.14,8.777l-12.8,25C477.125,432.5,472.41,445.436,459.5,438.823Z" transform="translate(-280.43 -206.828)" fill="#fff"/>
  <path id="Path_295" data-name="Path 295" d="M482.395,426.9l-26.182-13.409a1.637,1.637,0,0,1,1.477-2.884l26.182,13.409a1.637,1.637,0,0,1-1.477,2.884Z" transform="translate(-288.71 -220.037)" fill="#6c63ff"/>
  <path id="Path_296" data-name="Path 296" d="M458.079,424.577l-5.975-3.06a1.638,1.638,0,0,1,1.477-2.884l5.975,3.06a1.638,1.638,0,0,1-1.477,2.884Z" transform="translate(-287.52 -222.361)" fill="#6c63ff"/>
  <path id="Path_297" data-name="Path 297" d="M464.553,438.019,448,429.539a1.638,1.638,0,0,1,1.477-2.884l16.557,8.48a1.638,1.638,0,0,1-1.477,2.884Z" transform="translate(-286.329 -224.686)" fill="#6c63ff"/>
  <path id="Path_298" data-name="Path 298" d="M496.981,398.421,470.8,385.012a1.638,1.638,0,0,1,1.477-2.884l26.182,13.409a1.638,1.638,0,0,1-1.477,2.884Z" transform="translate(-292.936 -211.785)" fill="#6c63ff"/>
  <path id="Path_299" data-name="Path 299" d="M472.666,396.095l-5.975-3.06a1.638,1.638,0,0,1,1.477-2.884l5.975,3.06a1.638,1.638,0,0,1-1.477,2.884Z" transform="translate(-291.746 -214.109)" fill="#6c63ff"/>
  <path id="Path_300" data-name="Path 300" d="M479.14,409.537l-16.557-8.48a1.638,1.638,0,0,1,1.477-2.884l16.557,8.48a1.638,1.638,0,0,1-1.477,2.884Z" transform="translate(-290.556 -216.434)" fill="#6c63ff"/>
  <path id="Path_301" data-name="Path 301" d="M428.476,398.54l-9.829-36.591,26.266-4.972L443.5,382.093l34.511,35.535a9.423,9.423,0,1,1-8.96,10.621Z" transform="translate(-278.026 -204.524)" fill="#a0616a"/>
  <path id="Path_302" data-name="Path 302" d="M413.477,304.382C404.561,311.42,416,350.79,416,350.79c1.772-1.944,3.831,26.791,6,25.813,6.155-2.781,17.435-12.37,21.784-11.589,2.487.447-.119-19.007-.119-19.007s-.479-11.155-1.38-25.494a24.081,24.081,0,0,0-12.1-19.838S422.392,297.344,413.477,304.382Z" transform="translate(-275.543 -187.983)" fill="#3f3d56"/>
  <path id="Path_303" data-name="Path 303" d="M613.162,509.52,589.42,498.31a3.716,3.716,0,0,1-2.038-2.517,3.639,3.639,0,0,1,.676-3.1,71.437,71.437,0,0,0,13.788-30.012,3.691,3.691,0,0,1,3.617-2.976c12.109.041,21.158,4.463,26.9,13.14a3.738,3.738,0,0,1,.489,3.108A116.866,116.866,0,0,1,617.856,508.2,3.707,3.707,0,0,1,613.162,509.52Z" transform="translate(-326.883 -234.286)" fill="#e6e6e6"/>
  <path id="Path_304" data-name="Path 304" d="M625.707,502.743l-18.153-8.572a1.883,1.883,0,0,1,1.608-3.406l18.153,8.572a1.883,1.883,0,0,1-1.608,3.406Z" transform="translate(-332.444 -243.233)" fill="#fff"/>
  <path id="Path_305" data-name="Path 305" d="M629.678,494.335l-18.154-8.572a1.883,1.883,0,0,1,1.608-3.406l18.154,8.572a1.883,1.883,0,0,1-1.608,3.406Z" transform="translate(-333.594 -240.797)" fill="#fff"/>
  <path id="Path_306" data-name="Path 306" d="M515.99,208.4l-1.69.185c-7.534-29.607-22.138-50.119-42.234-59.318-25.547-11.693-57.137-3.841-88.951,22.111-31.975,26.084-60.282,67.286-79.7,116.018l-1.64-.75c19.508-48.945,47.96-90.346,80.115-116.575,32.316-26.362,64.55-34.272,90.766-22.272C493.324,157.264,508.309,178.22,515.99,208.4Z" transform="translate(-244.163 -142.337)" fill="#f2f2f2"/>
  <path id="Path_307" data-name="Path 307" d="M321.755,289.3c-4.419,9.309-8.622,18.954-12.493,28.665-22.275,55.886-33.562,112.96-32.64,165.056l-1.741-.186c-.923-52.29,10.4-109.56,32.741-165.621,3.882-9.739,8.1-19.411,12.529-28.746Z" transform="translate(-236.357 -184.675)" fill="#f2f2f2"/>
  <path id="Path_308" data-name="Path 308" d="M320.579,343.365c-4.419,9.309-8.622,18.954-12.493,28.665-22.275,55.886-33.562,112.96-32.64,165.056L273.7,536.9c-.923-52.289,10.4-109.56,32.741-165.621,3.882-9.739,8.1-19.411,12.529-28.746Z" transform="translate(-236.017 -200.339)" fill="#f2f2f2"/>
  <ellipse id="Ellipse_139" data-name="Ellipse 139" cx="6.291" cy="7.241" rx="6.291" ry="7.241" transform="translate(22.23 154.209) rotate(-56.364)" fill="#ccc"/>
  <ellipse id="Ellipse_140" data-name="Ellipse 140" cx="6.291" cy="7.241" rx="6.291" ry="7.241" transform="translate(432.019 258.67) rotate(-56.364)" fill="#ccc"/>
</svg>
