<svg id="undraw_my_current_location_re_whmt" xmlns="http://www.w3.org/2000/svg" width="514.596" height="398.271" viewBox="0 0 514.596 398.271">
  <ellipse id="Ellipse_141" data-name="Ellipse 141" cx="27.401" cy="55.908" rx="27.401" ry="55.908" transform="translate(366.533 250.717)" fill="#3f3d56"/>
  <path id="Path_309" data-name="Path 309" d="M835.739,700.525c10.974-65.843.11-131.448,0-132.1l-2.135.362c.11.651,10.912,65.912,0,131.386Z" transform="translate(-444.336 -302.387)" fill="#cacaca"/>
  <rect id="Rectangle_19" data-name="Rectangle 19" width="2.165" height="28.099" transform="translate(368.785 296.515) rotate(-61.858)" fill="#cacaca"/>
  <rect id="Rectangle_20" data-name="Rectangle 20" width="28.1" height="2.165" transform="translate(394.94 314.505) rotate(-28.158)" fill="#cacaca"/>
  <ellipse id="Ellipse_142" data-name="Ellipse 142" cx="53.592" cy="109.35" rx="53.592" ry="109.35" transform="translate(406.176 108.793)" fill="#e6e6e6"/>
  <path id="Path_310" data-name="Path 310" d="M946.189,601.457c21.436-128.611.216-256.755,0-258.034l-2.135.362c.216,1.276,21.373,129.075,0,257.317Z" transform="translate(-492.39 -204.495)" fill="#cacaca"/>
  <rect id="Rectangle_21" data-name="Rectangle 21" width="2.165" height="54.96" transform="translate(411.073 197.453) rotate(-61.858)" fill="#cacaca"/>
  <rect id="Rectangle_22" data-name="Rectangle 22" width="54.96" height="2.165" transform="translate(462.227 234.459) rotate(-28.158)" fill="#cacaca"/>
  <path id="Path_311" data-name="Path 311" d="M515.494,655.975H230.434a3.959,3.959,0,0,1-3.954-3.954V471.9a3.959,3.959,0,0,1,3.954-3.954h285.06a3.959,3.959,0,0,1,3.955,3.954V652.021a3.959,3.959,0,0,1-3.955,3.955Z" transform="translate(-180.193 -258.67)" fill="#e4e4e4"/>
  <path id="Path_312" data-name="Path 312" d="M278.578,506.579a1.7,1.7,0,0,0-1.695,1.695V649.263a1.7,1.7,0,0,0,1.695,1.695h232.63a1.7,1.7,0,0,0,1.695-1.695V508.274a1.7,1.7,0,0,0-1.695-1.695Z" transform="translate(-202.123 -275.48)" fill="#fff"/>
  <path id="Path_313" data-name="Path 313" d="M510.959,542.458v-8.934h-32.9V505.579h-8.934v27.944H410.558V505.579h-8.934v27.944H311.289V505.579h-8.934v27.944H271.117v8.934h31.237V577.2H271.117v8.934h31.237v37.226H271.117V632.3H350.5v18.792h8.934V632.3h42.189v18.792h8.934V632.3h100.4v-8.934h-100.4V586.136h100.4V577.2h-32.9V542.458Zm-109.335,0v10.92H311.289v-10.92Zm-90.335,19.854h90.335V577.2H311.289Zm0,61.051V586.136H350.5v37.226Zm90.335,0H359.435V586.136h42.189Zm67.5-46.16H410.558V542.458h58.569Z" transform="translate(-199.614 -275.045)" fill="#e6e6e6"/>
  <circle id="Ellipse_143" data-name="Ellipse 143" cx="11.416" cy="11.416" r="11.416" transform="translate(195.061 296.337)" fill="#6c63ff"/>
  <path id="Path_314" data-name="Path 314" d="M514.373,704.047H0v-1.233H514.6Z" transform="translate(0 -305.775)" fill="#cacaca"/>
  <circle id="Ellipse_144" data-name="Ellipse 144" cx="70.421" cy="70.421" r="70.421" transform="translate(137.424 99.095)" fill="#6c63ff"/>
  <path id="Path_315" data-name="Path 315" d="M334.867,443.761l-22.248-38-22.248-38,44.037-.265,44.037-.265-21.789,38.27Z" transform="translate(-126.333 -159.768)" fill="#6c63ff"/>
  <circle id="Ellipse_145" data-name="Ellipse 145" cx="25.266" cy="25.266" r="25.266" transform="translate(183.145 143.807)" fill="#fff"/>
  <path id="Path_316" data-name="Path 316" d="M492.606,97.864s-15.069-4.245-19.526,16.342-1.626,17.993-1.626,17.993l33.639-3.926S515.209,104.125,492.606,97.864Z" transform="translate(-286.39 -97.502)" fill="#2f2e41"/>
  <path id="Path_317" data-name="Path 317" d="M455.959,258.012s-22.734,1.052-18.8,9.976q.417.946.777,1.773a159.6,159.6,0,0,0,9.7,18.769l13.972,23.151,5.084-2.825-14.308-37.193,12.86-1.05Z" transform="translate(-271.656 -167.336)" fill="#ffb6b6"/>
  <path id="Path_318" data-name="Path 318" d="M564.359,273.933l7.349,16.01s5.512,5.512,11.548,27.558S590.6,338.76,590.6,338.76l-5.967,1.987-24.479-44.505L548.086,281.02l3.674-8.136Z" transform="translate(-320.115 -173.806)" fill="#ffb6b6"/>
  <path id="Path_319" data-name="Path 319" d="M506.559,237.774l10.56,19.655s23.942,47.045,21.467,46.889c-2.781-.176-10.594,3.067-12.993,6.214-1.158,1.519-18.078-35.59-24.021-43.887l-12.86-9.973s-36.515,6.146-36.559,4.147c-.022-.979,12.089,22.508,9.6,21.467-2.831-1.186-9.492,4.584-12.428,3.39-1.212-.493-9.772-21.248-13.237-29.753a4.6,4.6,0,0,1,2.13-5.825c2.6-1.354,38.789-9.617,38.789-9.617l-.633-3.232L479,232Z" transform="translate(-271.24 -156.018)" fill="#2f2e41"/>
  <circle id="Ellipse_146" data-name="Ellipse 146" cx="10.236" cy="10.236" r="10.236" transform="translate(191.819 30.64) rotate(-80.783)" fill="#ffb6b6"/>
  <path id="Path_320" data-name="Path 320" d="M526.65,205.8c.565,1.7-3.1,2.67-8.2,1.717-4.414-.824-9.246-1.8-13.057-2.6-4.081-.85-7-1.486-7-1.486s-1.05,6.561-4.462,5.774c-2.94-.677-11.724-31.361-14.1-39.841a2.95,2.95,0,0,1,1.3-3.315l12.065-7.367s8.315-2.856,11.346-2.937,8.28-.869,8.28-.869,6.037.525,7.086,4.987,5.43,30.916,5.512,37.269C525.521,204.1,524.956,200.713,526.65,205.8Z" transform="translate(-290.375 -122.465)" fill="#cacaca"/>
  <path id="Path_321" data-name="Path 321" d="M499.068,113.485s-4.245,11.248-14.644,15.918l-1.7-9.975Z" transform="translate(-291.679 -104.456)" fill="#2f2e41"/>
  <ellipse id="Ellipse_147" data-name="Ellipse 147" cx="1.444" cy="2.756" rx="1.444" ry="2.756" transform="translate(212.092 15.485)" fill="#ffb6b6"/>
  <path id="Path_322" data-name="Path 322" d="M480.945,351.378l-20.29,9.328-.118-.257a8.693,8.693,0,0,1,4.266-11.528h0l12.393-5.7Z" transform="translate(-281.679 -204.409)" fill="#2f2e41"/>
  <path id="Path_323" data-name="Path 323" d="M607.433,385.763l12.446-5.579h0a8.693,8.693,0,0,1,11.487,4.376l.116.258L611.1,393.953Z" transform="translate(-345.936 -220.157)" fill="#2f2e41"/>
  <path id="Path_324" data-name="Path 324" d="M401.411,104.51l-2.376,26.134,4.224.2Z" transform="translate(-173.609 -45.469)" opacity="0.2"/>
  <path id="Path_325" data-name="Path 325" d="M502.495,246.888a5.161,5.161,0,0,0-1.129-7.833l-9.129-46.113-10.483,4.011,12.269,44.066a5.189,5.189,0,0,0,8.471,5.869Z" transform="translate(-291.256 -139.026)" fill="#ffb6b6"/>
  <path id="Path_326" data-name="Path 326" d="M493.125,191.789l-11.511,2.027A2.314,2.314,0,0,1,478.9,191.6l-.318-11.648a6.427,6.427,0,0,1,12.665-2.193l3.672,11.019a2.314,2.314,0,0,1-1.794,3.01Z" transform="translate(-289.835 -130.1)" fill="#cacaca"/>
  <path id="Path_327" data-name="Path 327" d="M528.107,245.113a5.161,5.161,0,0,0,1.442-7.781l6.14-46.6-11.215.437-2.509,45.674a5.189,5.189,0,0,0,6.142,8.275Z" transform="translate(-308.043 -138.061)" fill="#ffb6b6"/>
  <path id="Path_328" data-name="Path 328" d="M536.563,188.656l-11.553-1.771a2.314,2.314,0,0,1-1.861-2.969l3.434-11.135a6.427,6.427,0,1,1,12.7,1.985l-.055,11.615a2.314,2.314,0,0,1-2.665,2.276Z" transform="translate(-309.221 -127.889)" fill="#cacaca"/>
</svg>
