<svg id="undraw_online_connection_6778" xmlns="http://www.w3.org/2000/svg" width="581.824" height="439.287" viewBox="0 0 581.824 439.287">
  <path id="Path_329" data-name="Path 329" d="M466,213.951H322.47a2.661,2.661,0,0,1-2.658-2.658v-35.6a2.661,2.661,0,0,1,2.658-2.658H466a2.661,2.661,0,0,1,2.658,2.658v35.6A2.661,2.661,0,0,1,466,213.951ZM322.47,174.1a1.6,1.6,0,0,0-1.595,1.595v35.6a1.6,1.6,0,0,0,1.595,1.595H466a1.6,1.6,0,0,0,1.595-1.595v-35.6A1.6,1.6,0,0,0,466,174.1Z" transform="translate(-197.688 -120.237)" fill="#3f3d56"/>
  <circle id="Ellipse_148" data-name="Ellipse 148" cx="10.827" cy="10.827" r="10.827" transform="translate(136.256 61.061)" fill="#6c63ff"/>
  <path id="Path_330" data-name="Path 330" d="M401.562,192.745a1.8,1.8,0,1,0,0,3.609h85.07a1.8,1.8,0,0,0,0-3.609Z" transform="translate(-229.473 -128.075)" fill="#e6e6e6"/>
  <path id="Path_331" data-name="Path 331" d="M401.562,210.718a1.8,1.8,0,0,0,0,3.609h36.606a1.8,1.8,0,1,0,0-3.609Z" transform="translate(-229.474 -135.221)" fill="#e6e6e6"/>
  <path id="Path_332" data-name="Path 332" d="M415.188,404.272H351.4a2.661,2.661,0,0,1-2.658-2.658V335.178a2.661,2.661,0,0,1,2.658-2.658h63.791a2.661,2.661,0,0,1,2.658,2.658v66.435A2.661,2.661,0,0,1,415.188,404.272ZM351.4,333.584a1.6,1.6,0,0,0-1.595,1.595v66.435a1.6,1.6,0,0,0,1.595,1.595h63.791a1.6,1.6,0,0,0,1.595-1.595V335.178a1.6,1.6,0,0,0-1.595-1.595Z" transform="translate(-209.189 -183.648)" fill="#3f3d56"/>
  <path id="Path_333" data-name="Path 333" d="M374.524,355.263a1.8,1.8,0,1,0,0,3.609H411.13a1.8,1.8,0,0,0,0-3.609Z" transform="translate(-218.724 -192.69)" fill="#e6e6e6"/>
  <path id="Path_334" data-name="Path 334" d="M374.524,372.911a1.8,1.8,0,1,0,0,3.609H411.13a1.8,1.8,0,1,0,0-3.609Z" transform="translate(-218.724 -199.707)" fill="#e6e6e6"/>
  <path id="Path_335" data-name="Path 335" d="M398.6,413.892a11.359,11.359,0,1,1,11.359-11.359A11.359,11.359,0,0,1,398.6,413.892Z" transform="translate(-224.498 -206.968)" fill="#6c63ff"/>
  <path id="Path_336" data-name="Path 336" d="M630.759,85.393H694.55a2.661,2.661,0,0,1,2.658,2.658v66.435a2.661,2.661,0,0,1-2.658,2.658H630.759a2.661,2.661,0,0,1-2.658-2.658V88.051a2.661,2.661,0,0,1,2.658-2.658Zm63.791,70.688a1.6,1.6,0,0,0,1.595-1.595V88.051a1.6,1.6,0,0,0-1.595-1.595H630.759a1.6,1.6,0,0,0-1.595,1.595v66.435a1.6,1.6,0,0,0,1.595,1.595Z" transform="translate(-320.26 -85.393)" fill="#3f3d56"/>
  <path id="Path_337" data-name="Path 337" d="M690.491,179.376a1.8,1.8,0,1,0,0-3.609H653.886a1.8,1.8,0,1,0,0,3.609Z" transform="translate(-329.794 -121.325)" fill="#e6e6e6"/>
  <path id="Path_338" data-name="Path 338" d="M690.491,161.727a1.8,1.8,0,0,0,0-3.609H653.886a1.8,1.8,0,0,0,0,3.609Z" transform="translate(-329.794 -114.308)" fill="#e6e6e6"/>
  <path id="Path_339" data-name="Path 339" d="M677.962,108.135A11.359,11.359,0,1,1,666.6,119.494,11.359,11.359,0,0,1,677.962,108.135Z" transform="translate(-335.569 -94.435)" fill="#6c63ff"/>
  <path id="Path_340" data-name="Path 340" d="M320.3,300.033a90.936,90.936,0,0,1,38.5-17.4,89.621,89.621,0,0,1,42.487,2.183,90.633,90.633,0,0,1,19.827,8.591,115.376,115.376,0,0,1,17.639,13.142c5.6,4.91,11.02,10.038,16.868,14.66a94.5,94.5,0,0,0,58.8,20.684q2.649,0,5.294-.146c.956-.053.962-1.547,0-1.494a92.978,92.978,0,0,1-60.781-18.367c-6.061-4.532-11.6-9.715-17.246-14.737a133.389,133.389,0,0,0-17.317-13.516,91.481,91.481,0,0,0-101,2.3c-1.4.975-2.772,1.994-4.12,3.043-.758.59.306,1.64,1.056,1.056Z" transform="translate(-197.36 -162.588)" fill="#3f3d56"/>
  <circle id="Ellipse_149" data-name="Ellipse 149" cx="7.763" cy="7.763" r="7.763" transform="translate(114.388 129.14)" fill="#3f3d56"/>
  <circle id="Ellipse_150" data-name="Ellipse 150" cx="7.763" cy="7.763" r="7.763" transform="translate(403.17 232.205)" fill="#3f3d56"/>
  <path id="Path_341" data-name="Path 341" d="M781.389,363.33H654.728a2.661,2.661,0,0,1-2.658-2.658v-65.9a2.661,2.661,0,0,1,2.658-2.658H781.389a2.661,2.661,0,0,1,2.658,2.658v65.9a2.661,2.661,0,0,1-2.658,2.658ZM654.728,293.173a1.6,1.6,0,0,0-1.595,1.595v65.9a1.6,1.6,0,0,0,1.595,1.595H781.389a1.6,1.6,0,0,0,1.595-1.595v-65.9a1.6,1.6,0,0,0-1.595-1.595Z" transform="translate(-329.79 -167.581)" fill="#3f3d56"/>
  <circle id="Ellipse_151" data-name="Ellipse 151" cx="10.827" cy="10.827" r="10.827" transform="translate(335.349 137.048)" fill="#6c63ff"/>
  <path id="Path_342" data-name="Path 342" d="M732.055,318.883a1.8,1.8,0,0,0,0,3.609h68.2a1.8,1.8,0,1,0,0-3.609Z" transform="translate(-360.874 -178.226)" fill="#e6e6e6"/>
  <path id="Path_343" data-name="Path 343" d="M732.055,336.856a1.8,1.8,0,0,0,0,3.609h36.606a1.8,1.8,0,0,0,0-3.609Z" transform="translate(-360.874 -185.372)" fill="#e6e6e6"/>
  <path id="Path_344" data-name="Path 344" d="M676.309,365.589c-1.373,0-2.49.81-2.49,1.8s1.117,1.8,2.49,1.8h100.5c1.373,0,2.49-.81,2.49-1.8s-1.117-1.8-2.49-1.8Z" transform="translate(-338.437 -196.796)" fill="#e6e6e6"/>
  <path id="Path_345" data-name="Path 345" d="M676.309,383.562c-1.373,0-2.49.81-2.49,1.8s1.117,1.8,2.49,1.8h100.5c1.373,0,2.49-.81,2.49-1.8s-1.117-1.8-2.49-1.8Z" transform="translate(-338.437 -203.941)" fill="#e6e6e6"/>
  <path id="Path_346" data-name="Path 346" d="M638.825,489.35c7.146-3.1,15.124-.4,21.859,2.46,3.469,1.471,6.9,3.042,10.49,4.2a59.791,59.791,0,0,0,9.249,2.192,65.36,65.36,0,0,0,19,.116,66.338,66.338,0,0,0,18.336-5.332,62,62,0,0,0,15.869-10.375q.9-.815,1.769-1.667c.688-.674-.369-1.73-1.056-1.056A60.239,60.239,0,0,1,718.86,490.82a64.848,64.848,0,0,1-17.986,5.778,63.516,63.516,0,0,1-18.953.327,59.667,59.667,0,0,1-9.28-2.017A98.174,98.174,0,0,1,662.4,490.93c-6.8-2.92-14.351-5.778-21.821-3.765a18.215,18.215,0,0,0-2.506.895C637.191,488.441,637.951,489.729,638.825,489.35Z" transform="translate(-324.069 -242.155)" fill="#3f3d56"/>
  <path id="Path_347" data-name="Path 347" d="M595.5,504.042H535.661l14.083-24.392a2.876,2.876,0,0,1,4.981,0l6.016,10.42,10.229-17.717a3.6,3.6,0,0,1,6.236,0Z" transform="translate(-283.507 -238.528)" fill="#6c63ff"/>
  <path id="Path_348" data-name="Path 348" d="M591.235,499.128H527.445a2.661,2.661,0,0,1-2.658-2.658v-35.6a2.661,2.661,0,0,1,2.658-2.658h63.791a2.661,2.661,0,0,1,2.658,2.658v35.6A2.661,2.661,0,0,1,591.235,499.128Zm-63.791-39.856a1.6,1.6,0,0,0-1.595,1.595v35.6a1.6,1.6,0,0,0,1.595,1.595h63.791a1.6,1.6,0,0,0,1.595-1.595v-35.6a1.6,1.6,0,0,0-1.595-1.595Z" transform="translate(-279.184 -233.62)" fill="#3f3d56"/>
  <path id="Path_349" data-name="Path 349" d="M828.75,445.122,817.38,450.9c-4.058,2.061-7.975,1.709-9.475-2.589h0a7.519,7.519,0,0,1,5.719-9.869l10.807-2.017,46.283-15.356,28.036-19.88,10.278,16.374-32.4,17.481Z" transform="translate(-391.581 -210.948)" fill="#ffb8b8"/>
  <path id="Path_350" data-name="Path 350" d="M808.066,695.07l-8.7-1.45.967-16.433h9.183Z" transform="translate(-317.818 -269.241)" fill="#ffb8b8"/>
  <path id="Path_351" data-name="Path 351" d="M944.093,669.262l-8.419,2.626-6.543-15.1,8.2-4.139Z" transform="translate(-369.411 -259.484)" fill="#ffb8b8"/>
  <path id="Path_352" data-name="Path 352" d="M999.5,638.371l-10.633,4.35-50.747-66.7-15.949,78.3-10.633-1.933c-6.821-67.5-12.383-136.352-5.558-168.916l39.39-1.692,17.882,57.03,8.7,38.665Z" transform="translate(-429.503 -242.992)" fill="#2f2e41"/>
  <path id="Path_353" data-name="Path 353" d="M916.322,801.148h0a7.634,7.634,0,0,1-4.732-.5l-5.168-2.326c-4.333-.223-7.284.641-9.7-2.508a6.323,6.323,0,0,1-.738-6.374h0a6.367,6.367,0,0,1,5.2-3.783l7.1-4.473.373,3.353c3.244,1.838,7.1,1.044,11.177-.745l2.228,7.8a7.634,7.634,0,0,1-5.74,9.561Z" transform="translate(-426.553 -362.03)" fill="#2f2e41"/>
  <path id="Path_354" data-name="Path 354" d="M1061.555,776.186h0a7.633,7.633,0,0,1-4.639,1.061l-5.643-.521c-4.171,1.2-6.681,2.971-9.985.777a6.323,6.323,0,0,1-2.768-5.789h0a6.367,6.367,0,0,1,3.689-5.267l5.261-6.535,1.441,3.05c3.665.685,7.051-1.317,10.33-4.334l4.639,6.651a7.634,7.634,0,0,1-2.325,10.907Z" transform="translate(-483.428 -353.063)" fill="#2f2e41"/>
  <circle id="Ellipse_152" data-name="Ellipse 152" cx="17.399" cy="17.399" r="17.399" transform="translate(483.964 135.36)" fill="#ffb8b8"/>
  <path id="Path_355" data-name="Path 355" d="M850.655,296.69l-22.716-4.833-2.9-18.849,15.949-3.383Z" transform="translate(-328.026 -107.2)" fill="#ffb8b8"/>
  <path id="Path_356" data-name="Path 356" d="M947.424,445.233h-40.6l9.151-22.975c-.665-7.905,2.686-13.72,7.481-18.782l6.084-15.274c9.83-6.47,17.241-5.986,25.132,2.417C964.03,403.866,957.554,423.78,947.424,445.233Z" transform="translate(-431.078 -204.028)" fill="#6c63ff"/>
  <path id="Path_357" data-name="Path 357" d="M934.341,512.276l-1.155,12.7c-.412,4.533-2.792,7.663-7.23,6.649h0a7.519,7.519,0,0,1-5.318-10.09l4.036-10.226,11.6-47.364-1.933-34.315h19.332l-2.417,36.731Z" transform="translate(-436.361 -222.258)" fill="#ffb8b8"/>
  <path id="Path_358" data-name="Path 358" d="M963.557,415.294H941.325l1.559-14.5a10.061,10.061,0,0,1,9.55-9.638h0a10.061,10.061,0,0,1,10.556,9.654Z" transform="translate(-444.794 -206.955)" fill="#6c63ff"/>
  <circle id="Ellipse_153" data-name="Ellipse 153" cx="6.54" cy="6.54" r="6.54" transform="translate(516.358 121.789)" fill="#2f2e41"/>
  <path id="Path_359" data-name="Path 359" d="M973.36,291.687a6.535,6.535,0,0,1,6.537-6.112c-.135-.017-.269-.038-.406-.047a6.54,6.54,0,1,0-.839,13.053c.138.009.273.005.409.006A6.535,6.535,0,0,1,973.36,291.687Z" transform="translate(-457.201 -164.959)" fill="#2f2e41"/>
  <path id="Path_360" data-name="Path 360" d="M949.1,299.215c-5.833-4.838-22.562,1.311-23.641,4.564-7.887,1.075-13.859,5.677-13.859,13.859h0c4.689,1.921,10.022,1.684,15.787,0,9.19,7.489,9.82,16.9,4.231,27.717l6.876.137,8.523-12.456.408,12.635,15.761-.316V327.248A37.857,37.857,0,0,0,959.14,309.9C956.684,305.133,952.872,302.347,949.1,299.215Z" transform="translate(-432.975 -169.694)" fill="#2f2e41"/>
  <ellipse id="Ellipse_154" data-name="Ellipse 154" cx="3.127" cy="4.378" rx="3.127" ry="4.378" transform="translate(498.318 152.755)" fill="#ffb8b8"/>
  <path id="Path_361" data-name="Path 361" d="M296.282,338.114s1.883-32.585,11.656-25.181-4.268,28.2-4.268,28.2Z" transform="translate(-188.333 -175.425)" fill="#ffb9b9"/>
  <path id="Path_362" data-name="Path 362" d="M231.065,515.9s21.71,24.372,9.563,26.047-16.924-22.96-16.924-22.96Z" transform="translate(-159.477 -256.558)" fill="#ffb9b9"/>
  <path id="Path_363" data-name="Path 363" d="M178.035,324.31h0a14.3,14.3,0,0,1,10.52,11.838l6.906,49.152,9.681,39.207s4.84,4.356,2.9,6.777,2.42,12.585,2.42,12.585l-12.1,3.872s-1.452-10.165-3.872-10.649c-2.127-.425-25.937-64.03-31.676-79.438-.791-2.125-1.239-3.333-1.239-3.333S162.546,321.89,178.035,324.31Z" transform="translate(-134.776 -180.332)" fill="#575a89"/>
  <path id="Path_364" data-name="Path 364" d="M186.457,749.885l7.433,13.172c5.756,12.289.641,14.521-13.472,8.43L177.2,755.933Z" transform="translate(-140.988 -349.587)" fill="#ffb9b9"/>
  <path id="Path_365" data-name="Path 365" d="M187.905,775.716s3.528-5.745,4.8-4.783,6.54,5.128,6.54,5.128l6.856,6.567s23.165,2.449,8.445,10.565-22.854,1.387-22.854,1.387-20.616,1.072-20.283-4.68,6.981-14.852,6.981-14.852S186.775,780.668,187.905,775.716Z" transform="translate(-138.686 -357.913)" fill="#2f2e41"/>
  <path id="Path_366" data-name="Path 366" d="M137.815,495.527l6.968,84.316s.232,50.4,7.665,60.159,7.665,14.633,7.665,14.633l15.33-7.9s-7.9-13.159-6.271-15.174a11.228,11.228,0,0,0,2.09-4.337L167.081,575.2l7.9-90.587Z" transform="translate(-125.328 -244.117)" fill="#2f2e41"/>
  <path id="Path_367" data-name="Path 367" d="M155.551,766.85" transform="translate(-132.38 -356.332)" fill="none" stroke="#3f3d56" stroke-miterlimit="10" stroke-width="1"/>
  <path id="Path_368" data-name="Path 368" d="M38.317,663.265l-6.5,17.188-14.749-6.166,7.781-12.88Z" transform="translate(-6.784 -262.967)" fill="#ffb9b9"/>
  <path id="Path_369" data-name="Path 369" d="M137.77,765.722s5.532-3.457,6.223-2.074,3.457,7.26,3.457,7.26l3.112,8.643s19.016,12.1,2.766,12.792-20.4-8.644-20.4-8.644-18.324-7.952-15.558-12.792,12.447-9.86,12.447-9.86S134.659,769.525,137.77,765.722Z" transform="translate(-117.087 -354.025)" fill="#2f2e41"/>
  <path id="Path_370" data-name="Path 370" d="M196.812,501.584l3.716,77.58s-33.912,70.147-37.628,72.005a9.33,9.33,0,0,0-4.646,5.575l-20.44-5.11,9.291-14.866,20.44-49.707s3.252-1.394,4.181-6.039,2.787-4.646-1.858-5.575a5.77,5.77,0,0,1-4.645-5.575l-15.33-70.611Z" transform="translate(-125.328 -249.942)" fill="#2f2e41"/>
  <circle id="Ellipse_155" data-name="Ellipse 155" cx="18.582" cy="18.582" r="18.582" transform="translate(33.442 126.713) rotate(-80.783)" fill="#ffb9b9"/>
  <path id="Path_371" data-name="Path 371" d="M178.392,272.159S177,295.851,175.14,298.173s19.511,1.858,19.511,1.858-1.394-19.976,0-21.834S178.392,272.159,178.392,272.159Z" transform="translate(-140.123 -159.649)" fill="#ffb9b9"/>
  <path id="Path_372" data-name="Path 372" d="M196.978,428.622s-52.494-4.645-62.247,0c0,0,3.59-13.319,2.663-14.711-.675-1.018,1.187-38.958.6-60.844-.331-12.349-3.181-24.41,5.1-33.578,2.819-3.114,5.964-5.729,9.283-7.006,0,0-.928-8.825,3.717-9.289,0,0,17.657-1.861,24.157,3.717,2.078,1.771,3.386,7.169,3.524,11.819-3.217,15.819-2.078,33.374.873,51.585.181,1.157.38,2.319.578,3.482C188.364,391.857,193.1,410.478,196.978,428.622Z" transform="translate(-124.102 -171.87)" fill="#575a89"/>
  <path id="Path_373" data-name="Path 373" d="M183.863,257.014a24.741,24.741,0,0,1,4.667.645,11.811,11.811,0,0,0,12.624-8.806,6.756,6.756,0,0,1,.646-2.1c.859-1.4,2.816-1.67,4.43-1.348s3.143,1.078,4.785,1.164a7.327,7.327,0,0,0,6.324-3.579,12.137,12.137,0,0,0,1.552-7.331l-1.216,1.276a6.177,6.177,0,0,1-.551-3.357,3.9,3.9,0,0,0-3.69.944c-1.072.114-.263-1.989-1.06-2.716a1.843,1.843,0,0,0-1.3-.243c-2.281.022-4.127-1.723-5.924-3.127a25.175,25.175,0,0,0-10.632-4.85,13.989,13.989,0,0,0-7.758.376,16.573,16.573,0,0,0-5.239,3.716c-3.825,3.678-7.211,8-8.8,13.06a21.986,21.986,0,0,0-.105,12.749c.641,2.164,2.573,9.575,5.4,9.747C181.573,263.449,179.439,257.278,183.863,257.014Z" transform="translate(-138.81 -140.19)" fill="#2f2e41"/>
  <path id="Path_374" data-name="Path 374" d="M196.062,328.181l6.657.713s6.535,12.679,6.06,15.323-1.508,1.039,1.433,5.27,11.288,15.168,12.321,16.773,29.21-19.893,27.458-26.334c0,0,8.9,6.384,12.711,7.234,0,0-29.038,38.083-33.085,42.957s-7.3,3.873-12.864.983-33.694-31.713-33.694-31.713Z" transform="translate(-143.317 -181.923)" fill="#575a89"/>
  <path id="Path_375" data-name="Path 375" d="M203.29,404.059l-23.139-23.139,5.855-1.91,16.7,21.566C202.892,401.734,203.091,402.9,203.29,404.059Z" transform="translate(-142.161 -202.132)" opacity="0.1" style="isolation: isolate"/>
</svg>
