<svg id="undraw_connected_world_wuay" xmlns="http://www.w3.org/2000/svg" width="726.348" height="567.945" viewBox="0 0 726.348 567.945">
  <path id="Path_95" data-name="Path 95" d="M680.856,151.07C598.417,30.311,424.269-18.675,253,34.084,162.454,61.975,75.152,117.861,31.887,226.073c-77.341,193.441,85.046,255.221,191.229,274.911a553.621,553.621,0,0,1,143.892,47.289c79.5,39.175,220.224,73.888,326.338-89.294C770.257,340.7,735.769,231.508,680.856,151.07Z" transform="translate(-11.697 -13.011)" fill="#f2f2f2"/>
  <path id="Path_96" data-name="Path 96" d="M223.7,252.436a20.479,20.479,0,0,0-1.339-5.125,2.32,2.32,0,0,0-1.179-1.452,2.43,2.43,0,0,0-1.17-.013l-6.008.919a2.3,2.3,0,0,0-1.371.533c-.782.823-.012,2.148-.036,3.283a3.086,3.086,0,0,1-2.391,2.656,9.039,9.039,0,0,1-3.8-.047l-8.4-1.305a13.851,13.851,0,0,0,6.355-4.241c1.105-1.31,1.694-3.755.1-4.375a3.922,3.922,0,0,0-1.459-.117c-3.806.03-6.8-3.148-10.364-4.486a11.459,11.459,0,0,0-12.9,3.845l4.475.216a1.986,1.986,0,0,1,1.192.318c.981.806-.239,2.353-.1,3.615.179,1.639,2.356,1.989,4,2.155s3.722,1.5,2.933,2.947c-8.247,2.84-16.638-5.553-25.3-4.519a51.4,51.4,0,0,0-6.4,1.664c-13.073,3.308-26.588-5.518-39.943-3.649a50.722,50.722,0,0,0-8.719,2.3,11.754,11.754,0,0,0-5.034,2.626c-1.321,1.384-1.823,3.751-.572,5.2a29.257,29.257,0,0,1-10.253-.975,5.744,5.744,0,0,1,2.953,5.062,60.833,60.833,0,0,0-15.584,4.752,26.246,26.246,0,0,0,3.226,4.3L79.792,272.9a3.89,3.89,0,0,1,2.154,5.682c2.388-1.062,3.868-3.81,6.421-4.367,1.673-.365,3.375.319,4.962.962s3.331,1.266,4.974.784,2.855-2.613,1.811-3.97a85,85,0,0,1,21.591-3.373,2.708,2.708,0,0,1,1.635.31c.952.66.7,2.087.65,3.244s.851,2.678,1.885,2.157c-1.217,1.055-.177,3.042.991,4.152s2.575,2.641,1.86,4.084c-.187.377-.5.678-.682,1.058-.53,1.122.311,2.43,1.3,3.176s2.208,1.266,2.9,2.3.376,2.838-.856,2.982l-3.5-4.448a9.12,9.12,0,0,0-2.367,4.485,9.41,9.41,0,0,1,1.164,12.872c-1.589,1.867-3.85,3-5.822,4.458s-3.8,3.53-3.793,5.982c.009,4.236-.338,8.172,1.25,12.1a186.393,186.393,0,0,0,10.119,21.111c1,1.79,2.295,3.753,4.323,4.061q-3.844-9.359-6.921-19.009c1.336.005,2.88.111,3.663,1.194.649.9.509,2.115.711,3.2a9.921,9.921,0,0,0,1.265,2.974l12.239,21.8c1.015,1.807,2.178,3.747,4.117,4.479,1.24.468,2.674.38,3.815,1.053.894.528,1.5,1.465,2.409,1.963,2.578,1.406,6.163-1.291,8.573.388a24.118,24.118,0,0,1,1.762,1.793c2.225,1.927,5.875.638,8.444,2.075,1.656.926,2.514,2.779,3.4,4.458,2.212,4.206,5.791,8.326,10.531,8.661a29.353,29.353,0,0,1,4.465.154c1.456.331,2.888,1.6,2.655,3.076-.4,2.528.848,5.3.513,7.832-.611,4.621-7.166,6.652-7.729,11.279a26.18,26.18,0,0,1-.172,3.051c-.3,1.215-1.208,2.205-1.533,3.413-.615,2.289,1.026,4.568,2.828,6.108s3.951,2.868,4.937,5.025c1.041,2.279.53,4.936.868,7.419.739,5.42,5.421,9.438,10.238,12.028a10.7,10.7,0,0,1,3.994,2.923c1.24,1.787,1.116,4.143,1.531,6.279,1.014,5.23,5.417,9.539,5.542,14.865.089,3.785-2.015,7.22-3.272,10.791a25.167,25.167,0,0,0,2.055,20.872,33.421,33.421,0,0,1,2.73,4.806c1.187,3.072.8,6.563,1.9,9.669,1.447,4.106,5.423,7.5,5.042,11.835,1.805,3.748,5.791,5.59,9.8,6.706l7.183,2a9.23,9.23,0,0,0,4.213.492,3.162,3.162,0,0,0,2.7-2.867c-3.523-.794-7.158-1.639-10.062-3.786s-4.893-5.969-3.791-9.408c.511-1.595,1.6-3.436.564-4.754-.592-.754-1.674-.952-2.341-1.64-1.041-1.074-.683-2.877.065-4.172s1.83-2.452,2.132-3.916a4.086,4.086,0,0,0-1.915-4.251,10.158,10.158,0,0,0,3.556-2.281,3.466,3.466,0,0,0,.631-3.928c2.184.277,4.763.413,6.2-1.258,1.145-1.334,1.066-3.329.614-5.028s-1.217-3.349-1.241-5.107a93.071,93.071,0,0,0,15.1-.512,9.79,9.79,0,0,0-4.591-5.749c2.269-.384,4.337-3.1,5.054-5.288a13.606,13.606,0,0,0,.091-6.828,3.664,3.664,0,0,1-.068-1.789,3.487,3.487,0,0,1,1.8-1.737l11.265-6.469a6.562,6.562,0,0,0,1.8-1.33c1.18-1.386,1.005-3.479.4-5.2s-1.572-3.332-1.805-5.138c-.7-5.4,5.085-9.275,7.036-14.359a21.634,21.634,0,0,0,1.07-6.3c.159-2.29.171-4.949-1.587-6.424-1.685-1.414-4.318-1.1-6.081-2.414-1.617-1.206-2.174-3.549-3.941-4.523-1.6-.885-3.615-.322-5.4-.738-3.141-.733-5.117-4.352-8.325-4.688-1.81-.189-3.858.7-5.341-.358-1.307-.929-1.359-2.8-1.608-4.379a12.23,12.23,0,0,0-9.871-9.9c-1.866-.3-3.9-.186-5.485-1.211-1.607-1.038-2.344-2.982-3.607-4.42-2.035-2.318-5.24-3.141-8.242-3.847L207.1,379.488c-2.168-.51-4.962-.78-6.126,1.119a8.777,8.777,0,0,0-.725,2.279,7.058,7.058,0,0,1-6.637,5,7.849,7.849,0,0,0-4.628-3.581,28.833,28.833,0,0,1-3.745-.891,5.26,5.26,0,0,1-2.283-7.3,6.548,6.548,0,0,0-1.119-7.876c-2.077-1.864-5.081-2.315-7.866-2.128-.729-1.591.49-3.387,1.8-4.543s2.91-2.294,3.2-4.021c.45-2.717-3.016-4.78-5.648-3.97s-4.312,3.366-5.422,5.886a17.331,17.331,0,0,1-2.184,4.187,4.291,4.291,0,0,1-4.154,1.7c-2.167-.554-3-3.129-3.484-5.313a34.557,34.557,0,0,1-1.156-8.9,11.64,11.64,0,0,1,3.356-8.106c3.6-3.307,9.129-2.983,13.991-2.455a3.553,3.553,0,0,1,.364-4.693,5.336,5.336,0,0,1,4.836-1.188,6.665,6.665,0,0,1,3.747,2.24c1.382,1.684,1.774,3.959,2.819,5.871s3.392,3.543,5.314,2.517c1.66-.886,1.924-3.188,1.51-5.024s-1.291-3.621-1.141-5.5c.286-3.579,4-5.734,7.27-7.208s7.023-3.456,7.542-7.009a6.391,6.391,0,0,1,.389-2.037,4,4,0,0,1,1.466-1.379c9.555-6.315,19.269-12.706,30.19-16.157.568-.18.635.02,1.214-.121.81-.468.273-1.764-.5-2.286s-1.816-.922-2.013-1.837c-.145-.673.251-1.333.354-2.013a2.514,2.514,0,0,0-3.3-2.547c-.877-1.162.859-2.512,2.262-2.9A61.434,61.434,0,0,1,249.5,287.2a2.325,2.325,0,0,1,1.469.25,1.756,1.756,0,0,1,.12,2.4,14.1,14.1,0,0,1-1.975,1.793,5.392,5.392,0,0,0-1.4,5.423C250,298.22,252.473,299.413,255,299s4.764-3.244,3.577-5.508c-1.1-2.109-4.423-2.585-4.993-4.9-.668-2.706,3.163-5.113,2.3-7.763-.378-1.161-1.535-1.844-2.423-2.682a7.279,7.279,0,0,1-1.593-8.071,9.183,9.183,0,0,1-8.054-2.52c-1.926-1.944-3.463-5.011-6.2-4.924-2.51.08-4.672,3.008-7.019,2.115-.577-.22-1.186-.667-1.746-.405a1.443,1.443,0,0,0-.651,1.081c-.6,2.852.43,6.1-1.125,8.565-1.691,2.682-5.6,3.053-7.654,5.472-1.113,1.313-1.544,3.081-2.567,4.465s-3.195,2.264-4.422,1.058a6.1,6.1,0,0,0-1.656-7.412,16.265,16.265,0,0,0-3.657-1.779,21.693,21.693,0,0,1-4.086-2.277,4.025,4.025,0,0,1-1.5-1.605,3.658,3.658,0,0,1,.1-2.538,10.378,10.378,0,0,1,8.259-6.845c1.635-.222,3.537-.144,4.619-1.39.572-.659.873-1.655,1.7-1.923a2.513,2.513,0,0,1,1.573.194l6.1,2.148a4.283,4.283,0,0,0,2.174.359,1.474,1.474,0,0,0,1.274-1.549c-.195-1.013-1.754-1.5-1.612-2.522a1.683,1.683,0,0,1,.511-.858,21.815,21.815,0,0,1,17.3-6.832c.77,1.265-.448,2.763-1.461,3.842s-1.828,3.009-.6,3.84a3.361,3.361,0,0,0,1.625.366,14.185,14.185,0,0,1,4.324,1.312q3.163,1.376,6.2,3.012a7.866,7.866,0,0,1,.157-4,2.706,2.706,0,0,1,3.2-1.744c1.212.469,1.834,2.074,3.126,2.221,1.723.2,2.4-2.349,1.683-3.927s-2.144-2.9-2.263-4.628c-.08-1.167.364-2.614-.568-3.321a2.537,2.537,0,0,0-1.1-.386l-23.277-4.283c-1.382-.254-3.379-.059-3.441,1.345-.034.784.666,1.559.356,2.28-.331.769-1.418.7-2.21.971a3.021,3.021,0,0,0-1.727,3.175,8.835,8.835,0,0,0,1.458,3.578C227.508,253.186,225.216,253.069,223.7,252.436Z" transform="translate(-39.237 -75.127)" fill="#3f3d56"/>
  <path id="Path_97" data-name="Path 97" d="M284.271,228.791a7.538,7.538,0,0,0-8.28,2.48,1.658,1.658,0,0,0-.384,1.747c.46.783,1.632.474,2.5.194a6.283,6.283,0,0,1,3.943-.094c.811.279,1.537.771,2.352,1.039a2.369,2.369,0,0,0,2.415-.353,3.145,3.145,0,0,0,.6-2.256,1.815,1.815,0,0,0-.462-1.491,2.371,2.371,0,0,0-1.069-.316,3.683,3.683,0,0,1-2.156-1.26" transform="translate(-112.539 -88.3)" fill="#3f3d56"/>
  <path id="Path_98" data-name="Path 98" d="M302.964,225.125a1.917,1.917,0,0,0-1.853,2.7,7.772,7.772,0,0,0,3.1.2,2.648,2.648,0,0,0,2.166-1.986,4.986,4.986,0,0,1-3.53-.674" transform="translate(-122.335 -87.218)" fill="#3f3d56"/>
  <path id="Path_99" data-name="Path 99" d="M346.224,216.848a35.646,35.646,0,0,0-7.946,2.7,5.97,5.97,0,0,1,3.813,6,3.122,3.122,0,0,0,.036,1.483c.292.707,1.137.973,1.881,1.155a12.4,12.4,0,0,0,4.126.527,4.2,4.2,0,0,0,3.415-2.087,14.877,14.877,0,0,1,.71-1.679c1.782-2.714,7.076.568,8.989-2.055.674-.924.612-2.315,1.491-3.047a3.349,3.349,0,0,1,1.533-.585,107.635,107.635,0,0,1,11.642-1.658c1.852-.161,4.265-.826,4.281-2.685a32.249,32.249,0,0,0-20.571,2.767c-2.293,1.149-5.326,3.565-7.535,2.042-.827-.57-.786-2.105-1.924-2.746C349,216.319,347.459,216.586,346.224,216.848Z" transform="translate(-136.219 -83.186)" fill="#3f3d56"/>
  <path id="Path_100" data-name="Path 100" d="M389.134,220.877l3.274.629a4.243,4.243,0,0,0-4.415,4.6c3.066,1.024,6.409.028,9.638.164s6.988,2.443,6.436,5.628c-.167.963-.723,1.926-.434,2.859a10.64,10.64,0,0,0,1.106,1.721c.679,1.256.136,2.844-.721,3.986s-2.009,2.053-2.762,3.266c-1.871,3.017-.808,6.918.307,10.289a9.071,9.071,0,0,0,1.744,3.483c1.651,1.756,4.343,1.909,6.753,1.944,1.754.026,3.764-.061,4.873-1.42,1.448-1.774.436-4.543,1.389-6.625.866-1.891,3.072-2.7,5.071-3.278a75.888,75.888,0,0,0,10.857-3.543c4.3-1.977,8.317-5.059,13.042-5.314a17.9,17.9,0,0,0,3.961-.278,3.012,3.012,0,0,0,2.393-2.791c-.083-1.131-1.04-1.962-1.788-2.815s-1.335-2.164-.648-3.067L461.6,228c-.878-2.393-1.562-5.544.456-7.1.728-.562,1.7-.787,2.322-1.466,1.056-1.158.525-3.152-.694-4.137a7.955,7.955,0,0,0-4.43-1.343,118.858,118.858,0,0,0-16.334.145l-31.91,1.749c-2.141.117-4.613-.062-6.577.669-1.663.618-2.845,1.754-4.746,2.153C396.173,219.4,392.31,218.906,389.134,220.877Z" transform="translate(-154.68 -82.243)" fill="#3f3d56"/>
  <path id="Path_101" data-name="Path 101" d="M487.5,267.566a1.317,1.317,0,0,0-.953.216,1.2,1.2,0,0,0-.31.735,4.853,4.853,0,0,0,.7,3.474,3.4,3.4,0,0,0,3.114,1.493c1.474-.188,2.561-1.446,3.916-2.059,2.089-.945,10.96-2.418,4.823-5.734-2.115-1.143-3.481-.134-5.148.618A11.714,11.714,0,0,1,487.5,267.566Z" transform="translate(-193.04 -101.087)" fill="#3f3d56"/>
  <path id="Path_102" data-name="Path 102" d="M577.378,221.166a3.5,3.5,0,0,0-1.7,1.484,1.5,1.5,0,0,0,.561,1.986,2.235,2.235,0,0,0,.836.133l2.914.087c1.238.037,2.784.3,3.116,1.493.247.886-.306,2.024.361,2.657a1.879,1.879,0,0,0,.991.387,6.755,6.755,0,0,0,2.936.095c2.12-.569,1.006-1.863,1.674-3.015,1.022-1.763.845-.7,2.645-1.706,1.329-.746,3.047-2.1,1.938-4C591.715,217.459,580.225,219.746,577.378,221.166Z" transform="translate(-227.118 -84.932)" fill="#3f3d56"/>
  <path id="Path_103" data-name="Path 103" d="M666.372,219.583l-1.692.226a68.143,68.143,0,0,0-11.326,2.169,18.849,18.849,0,0,0,4.96,1.217,15.235,15.235,0,0,1,2.779.395c1.623.483,3.258,1.731,4.826,1.092.972-.4,1.289-1.409,2.095-1.945.556-.37,2.665-.97,2.9-1.344C672.821,218.37,667.837,219.388,666.372,219.583Z" transform="translate(-256.875 -85.11)" fill="#3f3d56"/>
  <path id="Path_104" data-name="Path 104" d="M682.4,231.647a31.729,31.729,0,0,0-6.243,4.572,3.78,3.78,0,0,0-1.535,2.765c.1,1.447,1.637,2.286,2.972,2.851l5.408,2.29c.656-.925.056-2.2-.623-3.11s-1.484-1.96-1.184-3.054c.342-1.248,1.864-1.673,3.139-1.888,2.079-.35,7.687-.322,7.013-3.673C690.556,228.453,684.488,230.481,682.4,231.647Z" transform="translate(-265.026 -88.692)" fill="#3f3d56"/>
  <path id="Path_105" data-name="Path 105" d="M685.609,592.483a5.161,5.161,0,0,0,.327,4.548,4.608,4.608,0,0,0,4.73,1.634,8.52,8.52,0,0,0,4.391-2.823,15.121,15.121,0,0,0,2.526-3.873,30.234,30.234,0,0,0,1.872-6.85l1.679-8.817c.375-1.97.361-8.012-3.261-6.043-.989.538-3.28,4.783-4.317,5.987-1.869,2.17-2.116,4.275-3.1,6.9C689.225,586.441,686.749,589.185,685.609,592.483Z" transform="translate(-269.102 -206.223)" fill="#3f3d56"/>
  <path id="Path_106" data-name="Path 106" d="M1003.52,682.485a26.381,26.381,0,0,1-3.441-1.638,29.01,29.01,0,0,0-1.745,9.508l8.109-4.589c1.22-.69,2.6-1.649,2.576-3.051a.965.965,0,0,0-.448-.878,1.093,1.093,0,0,0-.568-.067,13.726,13.726,0,0,0-3.433,1.1,4.19,4.19,0,0,1-3.5.018" transform="translate(-385.124 -246.186)" fill="#3f3d56"/>
  <path id="Path_107" data-name="Path 107" d="M1069.948,686.246a17.553,17.553,0,0,0-2.6.933c-1.861.947-3.127,2.745-4.8,3.992a19.049,19.049,0,0,1-5.425,2.486,1.3,1.3,0,0,0,.3,1.917,3.761,3.761,0,0,0,2.142.481c1.968.043,4.04.062,5.763-.888a18.186,18.186,0,0,0,2.714-2.154,28.728,28.728,0,0,1,6.829-3.862,7.836,7.836,0,0,0,2.38-1.423c1.505-1.483,1.611-3.77-.559-4.275C1074.941,683.046,1071.618,685.706,1069.948,686.246Z" transform="translate(-408.775 -246.852)" fill="#3f3d56"/>
  <path id="Path_108" data-name="Path 108" d="M1105.736,663.677a6.764,6.764,0,0,0-2.07-5.543c-.022,2.041-.084,4.216-1.232,5.9-.818,1.2-2.1,2.015-3,3.161s-1.294,2.962-.243,3.967a3.94,3.94,0,0,0,2.335.8c2.093.246,4.515.384,5.983-1.128.8-.825,1.191-2.047,2.168-2.654a2.639,2.639,0,0,0,.951-.681c.4-.641-.238-1.487-.959-1.718s-1.517-.122-2.242-.342-1.39-1.035-1.018-1.695" transform="translate(-425.662 -237.941)" fill="#3f3d56"/>
  <path id="Path_109" data-name="Path 109" d="M1031.916,536.988a9.407,9.407,0,0,1-3.357.2c-1.863-.342-3.313-1.747-4.817-2.9a21.247,21.247,0,0,0-12.415-4.338c-4.087-.077-8.212,1.03-12.226.258a4.823,4.823,0,0,0,2.842,3.2c1.332.65,2.8.978,4.14,1.615a9.884,9.884,0,0,1,4.788,4.981,14.066,14.066,0,0,0,1.355,2.979c1.334,1.8,3.864,2.19,6.1,2.043,2.91-.191,5.95-1.029,8.658.056,2.071.829,3.554,2.642,5.283,4.052s4.166,2.456,6.151,1.439a10.169,10.169,0,0,1-7.036-9.785c1.948.179,7.558.11,7.256-3.2C1038.378,534.786,1033.588,536.685,1031.916,536.988Z" transform="translate(-385.434 -192.84)" fill="#3f3d56"/>
  <path id="Path_110" data-name="Path 110" d="M971.914,573.569c.346-1.9,2.237-3.572,1.648-5.408a3.328,3.328,0,0,0-3.213-1.928c-1.333-.031-2.643.366-3.975.4a19.369,19.369,0,0,0-2.6.037c-2.646.435-4.277,3.208-6.77,4.194-1.516.6-3.219.485-4.8.9-3.579.941-5.844,4.323-8.346,7.05a29.785,29.785,0,0,1-15.118,8.816c-2.035.471-4.223.773-5.84,2.094-2.142,1.75-2.669,4.751-3.146,7.476a123.469,123.469,0,0,1-6.011,22.066l8.5,1.085a11.553,11.553,0,0,0,4.847-.07,14.07,14.07,0,0,0,3.188-1.7,31.827,31.827,0,0,1,12.435-4.489,13.2,13.2,0,0,1,6.648.466,6.182,6.182,0,0,1,4.055,4.943,5.221,5.221,0,0,1,5.218,1.269,9.071,9.071,0,0,1,2.491,4.974c.224,1.163.448,2.556,1.527,3.044.88.4,1.89-.031,2.853-.108,3.268-.262,5.979,3.549,9.191,2.892,3.445-.7,4.29-5.862,7.65-6.9,1.93-.593,4.637.128,5.561-1.667.815-1.582-.811-3.408-.643-5.18.206-2.182,2.78-3.108,4.764-4.039,6.839-3.209,10.085-12.414,6.771-19.2-1.964-4.023-5.827-7.189-6.541-11.608-.549-3.4.791-7.365-1.376-10.041-1.1-1.361-2.97-2.113-3.626-3.737a18.423,18.423,0,0,1-.469-3.263c-.222-1.08-1.165-2.21-2.231-1.93-3.1.813-4.084,10.378-5.742,12.7C976.294,580.249,971.121,577.922,971.914,573.569Z" transform="translate(-350.913 -201.466)" fill="#3f3d56"/>
  <path id="Path_111" data-name="Path 111" d="M912.333,547.582a4.984,4.984,0,0,0-3.227-.165c-1.014.424-1.606,1.912-.792,2.651,6.366-.248,12.77-.494,19.082.37,7.272,1,14.469,3.463,21.772,2.737a110.805,110.805,0,0,0-12.7-2.947l-7.15-1.366a55.265,55.265,0,0,0-5.806-.9C919.432,547.628,916.344,548.706,912.333,547.582Z" transform="translate(-353.444 -199.72)" fill="#3f3d56"/>
  <path id="Path_112" data-name="Path 112" d="M921.882,505.4c-.528-.044-1.183-.082-1.456.372-.261.434.038,1.008-.1,1.495-.192.665-1.063.835-1.749.744a3.351,3.351,0,0,0-2.036.023A1.726,1.726,0,0,0,915.87,510a5.045,5.045,0,0,0,1.177,1.876,19.155,19.155,0,0,0,3.054,3.063c2.188,1.615,5.152,2.393,6.53,4.737a3.145,3.145,0,0,0,.872,1.174,2.424,2.424,0,0,0,2.236-.225l2.5-1.141a2.836,2.836,0,0,0,1.167-.794,2.566,2.566,0,0,0-.259-2.708,4.655,4.655,0,0,1-.989-2.653c.183-1.7,2.375-2.356,3.276-3.814s.317-3.364.422-5.089c.122-2.017,1.39-4.641-.649-6.148-1.733-1.281-3.389-.1-4.634,1.317C927.946,502.575,926.706,505.8,921.882,505.4Z" transform="translate(-357.074 -181.506)" fill="#3f3d56"/>
  <path id="Path_113" data-name="Path 113" d="M951.155,456.021c.852,1.632,2.629,2.606,3.559,4.2,1.007,1.723.893,3.948,1.986,5.618,1.121,1.713,3.378,2.623,4.007,4.571.687,2.127-.871,4.713.37,6.572a2.759,2.759,0,0,0,4.047.372,2.968,2.968,0,0,0-.123-4.141c-.735-.67-1.791-.96-2.4-1.743a3.658,3.658,0,0,1-.623-1.516,9.928,9.928,0,0,1,.156-4.758,2.118,2.118,0,0,0,.12-1.245c-.276-.8-1.364-.86-2.127-1.233-1.734-.846-1.692-3.293-1.389-5.2-.2,1.269-4.72-.889-5.194-1.608-.94-1.427-.428-4.181-.614-5.758A4.483,4.483,0,0,0,951.155,456.021Z" transform="translate(-370.574 -164.735)" fill="#3f3d56"/>
  <path id="Path_114" data-name="Path 114" d="M872.242,501.144c-.834-.934-2.09-1.91-3.208-1.347a2.031,2.031,0,0,0-.753,2.5,5.513,5.513,0,0,0,1.819,2.169,63.513,63.513,0,0,1,6.872,5.89c3.638,4,5.565,9.392,9.521,13.075a5.34,5.34,0,0,0,3,1.623,2.33,2.33,0,0,0,2.58-1.781,3.4,3.4,0,0,0-1.2-2.5c-1.537-1.672-3.219-3.21-4.67-4.957a4.165,4.165,0,0,1-1.194-2.493c-.007-.941.85-1.925,1.762-1.692-1.108-.283-1.93-2.13-3.557-2.477-1.359-.29-1.688.551-3.306-.142C876.823,507.7,874.4,503.562,872.242,501.144Z" transform="translate(-338.775 -182.049)" fill="#3f3d56"/>
  <path id="Path_115" data-name="Path 115" d="M985.666,348.787a25.55,25.55,0,0,1-2.607-.931c-2.291-.688-5.322,1-5.017,3.368.2,1.576,1.67,2.639,2.48,4.006,1.2,2.028.881,4.6.25,6.87a5.371,5.371,0,0,1-.867,1.955,6.619,6.619,0,0,1-2.053,1.477,27.458,27.458,0,0,0-8.034,6.825,1.967,1.967,0,0,0-.485.915c-.109.8.7,1.384,1.151,2.052,1.011,1.484.28,3.481.38,5.274a1.491,1.491,0,0,0,.628,1.308c.609.31,1.332-.216,1.662-.815,1.1-1.986.27-5.174,2.327-6.131.389-.181.861-.257,1.12-.6.412-.542.015-1.345.223-1.993.313-.973,1.644-1.017,2.665-.973a15.125,15.125,0,0,0,5.2-.692,3.459,3.459,0,0,0,1.72-1,3.743,3.743,0,0,0,.437-2.833,38.406,38.406,0,0,0-4.538-13.847c1.807.231,3.772.431,5.331-.511.873-.527,1.92-2.1,1.487-3.177C988.438,347.642,987.2,349.071,985.666,348.787Z" transform="translate(-373.391 -128.925)" fill="#3f3d56"/>
  <path id="Path_116" data-name="Path 116" d="M557.5,385.8a6.956,6.956,0,0,1,.049,3.5,2.392,2.392,0,0,1-2.7,1.707c-.876-.266-1.382-1.146-2-1.818-3.459-3.734-11.263-1.572-13.4-6.192-.872-1.886-.279-4.145-.874-6.135a5.461,5.461,0,0,0-5.53-3.757,11.363,11.363,0,0,0-3.182.95,80.238,80.238,0,0,1-21.084,5.273,17.32,17.32,0,0,0-4.051.737c-2.971,1.077-5,3.831-6.445,6.641s-2.511,5.853-4.447,8.349c-2.035,2.624-4.887,4.461-7.548,6.449a7.7,7.7,0,0,0-2.49,2.61,8.163,8.163,0,0,0-.5,3.878l.544,15.987A14.438,14.438,0,0,0,484.917,430c1.149,2.3,3.42,3.8,4.995,5.833a11.425,11.425,0,0,1,2.37,7.3c-.034,1.058-.139,2.31.686,2.975a3.015,3.015,0,0,0,1.686.485l21.626,1.77c3.8.311,8.02.823,10.5,3.722,1.172,1.368,2.114,3.335,3.909,3.482a14.525,14.525,0,0,0,2.29-.314c1.943-.154,3.651,1.321,4.728,2.946a13.069,13.069,0,0,1,2.1,8.386c-.177,1.853-.751,3.655-.875,5.512-.471,7.068,5.52,13.209,5.636,20.292.068,4.166-1.909,8.059-3.838,11.752,3.112,4.714.564,10.992,1.8,16.5,1.175,5.229,5.535,9.322,6.622,14.57.5,2.4.526,5.359,2.645,6.6a6.029,6.029,0,0,0,2.993.6,39.451,39.451,0,0,0,17.965-4.09c2.62-1.3,5.334-3.241,5.792-6.129.369-2.329-.812-4.935.39-6.964,1.417-2.391,5.047-2.2,7.131-4.04,3.382-2.983.745-8.671,2.115-12.967,1.232-3.862,5.472-5.913,7.573-9.379a16.667,16.667,0,0,0,1.76-4.77,68.035,68.035,0,0,0,1.791-12.165,72.912,72.912,0,0,1,.55-7.451c2.266-14.078,16.183-23.5,20.7-37.028.432-1.292.634-3.012-.515-3.743a3.291,3.291,0,0,0-2.188-.229l-9.969,1.257a6.863,6.863,0,0,1-3.688-.212c-1.137-.514-1.952-1.953-1.349-3.045,1.693-3.067-1.79-6.943-3.337-10.086a148.831,148.831,0,0,0-14.82-24.035,2.443,2.443,0,0,1-.65-1.411l2.829.094c-.955-3.427-2.531-7.177-5.861-8.431-1.876-.706-3.954-.462-5.956-.353C569.326,387.544,563.18,386.679,557.5,385.8Z" transform="translate(-189.649 -129.674)" fill="#3f3d56"/>
  <path id="Path_117" data-name="Path 117" d="M587.537,248.992c1.5,1.593,3.182,3.283,5.352,3.56,3.834.491,6.591-3.474,8.346-6.918a3.381,3.381,0,0,0,3.528,3.127,6.965,6.965,0,0,0,2.653-1.037,52.27,52.27,0,0,1,24.763-6.4,2.674,2.674,0,0,1,2.042-2.94c1.76-.349,3.346,1.173,4.195,2.754s1.378,3.413,2.727,4.6,3.961,1.132,4.494-.582c.512-1.645-1.2-3.048-2.626-4.018s-2.924-2.765-1.966-4.2c7.274-1.61,14.593-3.226,22.036-3.546a9.227,9.227,0,0,0,3.709-.639,2.883,2.883,0,0,0,1.732-3.048,8.4,8.4,0,0,1-8.766-3.306c10.328-.852,21.312-1.579,30.465,3.281,1.1,2.358-4.5,4.32-3,6.446a2.711,2.711,0,0,0,2.264.773c6.36.118,12.757.234,19.046-.726a25.5,25.5,0,0,1,6.926-.562c3.843.474,7.13,3.038,10.911,3.874a5.838,5.838,0,0,0,4.561-.543c1.3-.9,1.855-2.933.792-4.1,3.56-3.489,9.468-2.624,14.164-.954s9.145,4.364,14.116,4.736c3.564.267,7.178-.692,10.7-.082a66.618,66.618,0,0,1,6.436,1.972c4.091,1.144,8.419.9,12.667.958a88.751,88.751,0,0,1,31.628,6.285,9.4,9.4,0,0,1,3.516,2.077,3.447,3.447,0,0,1,.785,3.783l-10.406-1.52c.98,1.93,3.517,2.259,5.577,2.925s4.2,2.941,2.958,4.717c-2.232-.711-4.254,1.521-5.382,3.574s-2.5,4.512-4.84,4.637c-2.094.112-4.628-1.671-5.993-.079a40.871,40.871,0,0,1,4.815,7.7c1.349,2.81,2.309,6.35.486,8.879a2.3,2.3,0,0,1-1.23.954c-1.489.377-2.456-1.444-3.524-2.548-1.345-1.391-3.38-1.785-5.2-2.438s-3.741-1.936-3.884-3.866a7.722,7.722,0,0,1,1.012-3.427,13.2,13.2,0,0,0,1-5.922,6.726,6.726,0,0,0-1.729-4.462,3.464,3.464,0,0,0-4.446-.457c-.586.486-1.056,1.264-1.817,1.294-1.345.051-2.377-2.293-3.459-1.493a3.676,3.676,0,0,1-.5,2.458c-3.228,2.808-8.188,1.62-12.35,2.612a23.183,23.183,0,0,0-5.634,2.461,3.625,3.625,0,0,0-1.61,1.352,2.493,2.493,0,0,0,.969,2.974,7.693,7.693,0,0,0,3.195,1.091c5.074.961,10.222,2.449,14.228,5.708s6.633,8.646,5.365,13.652l-10.006-9.561q.57,6.022.647,12.076a5.43,5.43,0,0,1-.317,2.323c-.713,1.576-2.647,2.106-4.341,2.454a3.4,3.4,0,0,0-2.61,4.356c.6,1.962,2.1,3.492,3.477,5.016s2.727,3.256,2.907,5.3-1.362,4.349-3.41,4.206c-1.552-.108-2.7-1.5-3.365-2.9a18.456,18.456,0,0,0-2.051-4.172c-3.011-3.621-9.773-2.069-12.47-5.93a6.1,6.1,0,0,0-1.261,5.8c1.255-.785,2.972-.056,3.915,1.086a26.756,26.756,0,0,1,2.128,3.886c1,1.73,2.589,3.263,2.728,5.256a17.181,17.181,0,0,0,.038,2.26c.248,1.207,1.268,2.074,1.976,3.083,1.646,2.348,1.565,5.574.5,8.238a25.408,25.408,0,0,1-4.856,7.049,85.027,85.027,0,0,1-10.573,10.648,11.109,11.109,0,0,0-3,3.021,3.276,3.276,0,0,0,.337,3.952c-.764.038-2.134.414-2.9.452a67.39,67.39,0,0,1-.175-9.218c-3.015-1.448-6.261,2.429-5.872,5.751s2.792,5.988,4.5,8.862a10.471,10.471,0,0,1,1.763,6.962c-.418,2.41-2.569,4.633-5.005,4.421-3.876-.338-5.5-5.9-9.335-6.539a1.568,1.568,0,0,0-1.01.1c-.57.313-.669,1.075-.7,1.724-.157,3.186-.293,6.5.951,9.435,1.819,4.3,6.519,7.906,5.533,12.467-5.311-2.469-8.073-8.425-9.326-14.146s-1.463-11.727-3.71-17.136c-1.707,2.187-5.294.379-6.853-1.916-1.478-2.175-2.388-4.692-3.823-6.9s-3.631-4.179-6.259-4.3c-2.755-.127-5.144,1.763-7.245,3.549a16.889,16.889,0,0,0-4.511,5.026c-1.47,2.954-1.085,6.438-1.156,9.737-.077,3.567-.832,7.33-3.263,9.941s-6.918,3.52-9.6,1.167a10.816,10.816,0,0,1-2.681-4.826,236.256,236.256,0,0,1-7.259-25.913c-.451,2-2.208,4.581-3.887,3.4a3.481,3.481,0,0,1-.9-1.154c-3.132-5.308-8.931-8.491-14.791-10.4s-12.025-2.8-17.819-4.9a45.134,45.134,0,0,1-9.244-4.6,7.27,7.27,0,0,0-.444,7.437,5.924,5.924,0,0,0,6.684,2.8c1.287-.411,2.373-1.3,3.65-1.746s2.99-.225,3.549,1.005c.534,1.177-.273,2.6.127,3.831.61,1.872,3.434,2.017,4.421,3.72a3.427,3.427,0,0,1-.919,3.974,16.629,16.629,0,0,1-3.729,2.3c-4.155,2.31-7.109,6.254-10.74,9.323s-8.754,5.309-13.081,3.341c1.031-5.223-5.19-9.058-6.335-14.257-.377-1.711-.181-3.529-.719-5.2-.779-2.415-2.921-4.075-4.678-5.9a23.174,23.174,0,0,1-6.356-16.861c.095-2.149.49-4.333,0-6.427s-2.224-4.122-4.373-4.027c-4.908.217-11.091.582-13.666-3.6-.919-1.493-1.319-3.68.01-4.824.937-.807,2.321-.731,3.552-.61l11.059,1.088c2.586.254,5.382.464,7.6-.888s3.181-4.941,1.126-6.532c-1.5-1.162-4.192-1.1-4.628-2.947-.364-1.539,1.34-3.286.42-4.572-.66-.922-2.143-.666-3.042.025a19.485,19.485,0,0,1-2.557,2.226c-1.765.918-3.873.044-5.772-.55s-4.444-.644-5.365,1.119c-1.03,1.972.914,4.556-.109,6.532-1.351,2.613-5.927,1.125-7.825,3.373-2.178,2.579,1.482,6.424.747,9.718a6.05,6.05,0,0,1-5.96-.335,5.789,5.789,0,0,1-2.5-5.39c.182-1.482.954-2.995.437-4.4a5.157,5.157,0,0,0-2.612-2.39L556.387,297.3c-1,1.851.264,4.145,1.841,5.536s3.553,2.437,4.59,4.267a5.6,5.6,0,0,1-2.107,7.384,1.293,1.293,0,0,1-1.065.186,1.486,1.486,0,0,1-.691-.929c-1.9-4.852-4.743-9.636-9.294-12.171s-11.091-2.014-14.076,2.256c-.709,1.014-1.185,2.17-1.8,3.242-3.281,5.7-10.315,8.394-16.886,8.218a3.353,3.353,0,0,1-1.842-.433c-1.062-.734-1.014-2.29-.852-3.571l.69-5.434a4.317,4.317,0,0,1,1.2-2.978c1.217-.96,2.974-.354,4.524-.377a5.733,5.733,0,0,0,5.2-4.016,6.462,6.462,0,0,0-1.8-6.426c-.711-.667-1.664-1.506-1.289-2.406a1.989,1.989,0,0,1,1.395-.939c2.785-.809,5.727-1.021,8.466-1.975s5.394-2.907,6.043-5.733c.2-.866.289-1.915,1.067-2.345a3.2,3.2,0,0,1,1.233-.252,6,6,0,0,0,5.148-6.257c1.312-.917,3.151-.242,4.421.733s2.391,2.264,3.935,2.684c2.879.784,5.661-1.765,8.645-1.777,1.255,0,2.554.439,3.734.013,1.2-.431,1.911-1.622,2.83-2.5s2.53-1.417,3.378-.469l-.722-5.349a10.517,10.517,0,0,0,8.559-1.547l-9.334-3.154a2.029,2.029,0,0,1-.873-.467c-.679-.731,0-1.869.547-2.7,1.32-1.987,1.542-5.26-.629-6.249-1.482-.675-3.182.135-4.6.928l-6.812,3.8c-.217,1.295,1.367,2.029,2.348,2.9a3.937,3.937,0,0,1-2.568,6.88,4.906,4.906,0,0,1,.876,4.159l-4.583.33a1.986,1.986,0,0,1-1.487-.29c-.49-.435-.424-1.2-.537-1.844a4,4,0,0,0-3.358-2.931,11.81,11.81,0,0,0-4.693.433,2.8,2.8,0,0,1-2.017-.047,2.014,2.014,0,0,1-.8-1.007,5.175,5.175,0,0,1,1.042-4.968,27.573,27.573,0,0,1,3.908-3.594,22.776,22.776,0,0,0,6.772-10.5c2.523-1.057,5.135-2.494,7.659-3.551a23.436,23.436,0,0,1,12.6-2.441l8.545.163a20.49,20.49,0,0,1,7.468,1.075c2.339.965,4.395,3.051,4.556,5.576a1.712,1.712,0,0,1-.548,1.565,2.019,2.019,0,0,1-1.08.243C590.9,248.321,589.9,248.909,587.537,248.992Z" transform="translate(-189.287 -81.889)" fill="#3f3d56"/>
  <path id="Path_118" data-name="Path 118" d="M518.193,307.8a2.5,2.5,0,0,0,.682-2.515,4.677,4.677,0,0,0-4.843.915,8.167,8.167,0,0,0-1.3,1.715c-1.123,1.832-2.116,4.02-1.465,6.068a1.724,1.724,0,0,0,.789,1.079,2.075,2.075,0,0,0,.92.144,30.82,30.82,0,0,0,3.7-.228c.754-.092,1.63-.305,1.921-1.007.383-.922-.544-1.966-.274-2.927a3.2,3.2,0,0,1,.79-1.131,1.5,1.5,0,0,0,.466-1.255c-.109-.451-.8-.707-1.048-.315" transform="translate(-202.658 -114.927)" fill="#3f3d56"/>
  <path id="Path_119" data-name="Path 119" d="M530.646,295.581a10.354,10.354,0,0,0-3.353-.211,1.463,1.463,0,0,0-.715.162,1.192,1.192,0,0,0-.44.638,3.168,3.168,0,0,0,1.844,3.882,3.965,3.965,0,0,1,1.144.46c.948.736.344,2.24.523,3.427.2,1.333,1.492,2.452,1.255,3.779-.186,1.046-1.3,1.873-1.123,2.92.188,1.1,1.579,1.426,2.688,1.513a3.38,3.38,0,0,0,1.9-.218,2.949,2.949,0,0,0,1.2-1.74,11.155,11.155,0,0,0,.562-4.2,3.983,3.983,0,0,0-.474-1.854,10.35,10.35,0,0,0-1.107-1.267C532.433,300.4,534.67,296.715,530.646,295.581Z" transform="translate(-208.341 -111.35)" fill="#3f3d56"/>
  <path id="Path_120" data-name="Path 120" d="M688.58,500.621s-162.708-93.4-232.757-75.7c0,0-148.453,15.976-165.658,51.123,0,0-47.19-147.47-64.4-152.386" transform="translate(-84.555 -113.102)" fill="none" stroke="#6c63ff" stroke-miterlimit="10" stroke-width="2" opacity="0.8"/>
  <path id="Path_121" data-name="Path 121" d="M290.166,475.375c27.282-72.752,273.065-153.369,273.065-153.369-34.9,8.848-107.407,102.246-107.407,102.246S302.455,312.667,225.77,322.99c0,0,337.706,11.06,462.81,176.964" transform="translate(-84.555 -112.497)" fill="none" stroke="#6c63ff" stroke-miterlimit="10" stroke-width="2" opacity="0.8"/>
  <circle id="Ellipse_123" data-name="Ellipse 123" cx="7.128" cy="7.128" r="7.128" transform="translate(120.366 194.549)" fill="#6c63ff"/>
  <circle id="Ellipse_124" data-name="Ellipse 124" cx="7.128" cy="7.128" r="7.128" transform="translate(191.653 361.214)" fill="#6c63ff"/>
  <circle id="Ellipse_125" data-name="Ellipse 125" cx="7.128" cy="7.128" r="7.128" transform="translate(474.904 193.474)" fill="#6c63ff"/>
  <circle id="Ellipse_126" data-name="Ellipse 126" cx="7.128" cy="7.128" r="7.128" transform="translate(608.782 388.095)" fill="#6c63ff"/>
  <circle id="Ellipse_127" data-name="Ellipse 127" cx="7.128" cy="7.128" r="7.128" transform="translate(363.49 305.301)" fill="#6c63ff"/>
</svg>
