<svg xmlns="http://www.w3.org/2000/svg" width="613.964" height="535.424" viewBox="0 0 613.964 535.424">
  <g id="Group_7" data-name="Group 7" transform="translate(-193.198 -262.032)">
    <path id="Path_203" data-name="Path 203" d="M352.882,352.959a28.076,28.076,0,0,1-4.324.1.943.943,0,0,0-1.038.818l-2.758,20.687a8.4,8.4,0,0,1-1.779,4.1,8.932,8.932,0,0,0-2.011,6.826v35.14s-.178,4.685,3.422,4.685a52.042,52.042,0,0,0,12.977,0s2.882-.546,2.882-4.869v-34.6a8.463,8.463,0,0,0-1.779-6.88,8.611,8.611,0,0,1-1.726-4.074l-2.865-21.119a.943.943,0,0,0-1-.812Z" transform="translate(-57.85 95.464)" fill="#fff"/>
    <path id="Path_206" data-name="Path 206" d="M20.432,611.812h14.25l6.78-54.966H20.429Z" transform="translate(189.888 171.83)" fill="#9f616a"/>
    <path id="Path_207" data-name="Path 207" d="M249.773,747.425h28.065a17.885,17.885,0,0,1,17.885,17.883v.582l-45.949,0Z" transform="translate(-43.088 31.565)" fill="#2f2e41"/>
    <path id="Path_208" data-name="Path 208" d="M243.063,518.7s-6.176,6.981,4.05,34.2l-1.8,149.219,33.141-.646,7.285-72.788L299,522.464Z" transform="translate(-41.702 68.615)" fill="#2f2e41"/>
    <path id="Path_209" data-name="Path 209" d="M309.147,508.757l-.363-.055c-42.4-6.466-74.39-12.665-74.708-12.727l-.4-.077,11.114-27.032c-.088-2.825-2.494-82.145,2.112-104.934,4.458-22.061,25.474-25.677,27.868-26.017l2.4-7.967,30.379,15.808,5.3,18.235,1.076,49.978Z" transform="translate(-40.481 99.191)" fill="#3f3d56"/>
    <path id="Path_210" data-name="Path 210" d="M330.675,420.571a9.915,9.915,0,0,0-7.285,3.187l-51.061,0-18.7,3.981,3.071,23.685,66.535-14.309a9.948,9.948,0,1,0,7.443-16.543Z" transform="translate(-43.712 84.511)" fill="#9f616a"/>
    <circle id="Ellipse_128" data-name="Ellipse 128" cx="24.609" cy="24.609" r="24.609" transform="translate(232.414 418.171) rotate(-61.337)" fill="#9f616a"/>
    <path id="Path_211" data-name="Path 211" d="M291.525,279.058l-1.193-2.4,6-2.983s6.622-10.775,18.606-7.747,17.375,4.84,17.375,4.84l5.988,3.013-3.005,2.99,5.391,1.812-3.6,1.79,4.191,2.409-2.256,12.348s-3.747-9.366-10.951-5.787-20.38-1.85-20.38-1.85l-11.448,22.155s-2.362-7.766-6.572-5.7C289.672,303.952,278.915,286.82,291.525,279.058Z" transform="translate(-48.859 109.648)" fill="#2f2e41"/>
    <path id="Path_212" data-name="Path 212" d="M256.278,443.4l-5.839-17.37-1.413-57.9,2.488-8.215a22.952,22.952,0,1,1,43.349,15L281.527,409.08l.678,1.316,28.892-.234,10.263,18.473Z" transform="translate(-42.967 96.978)" fill="#3f3d56"/>
    <path id="Path_213" data-name="Path 213" d="M599.924,446.093a8.892,8.892,0,0,0,1.421-13.561l14.241-28.21-16.312,1.892-11.023,26.5a8.941,8.941,0,0,0,11.673,13.38Z" transform="translate(-97.543 87.143)" fill="#ffb7b7"/>
    <path id="Path_214" data-name="Path 214" d="M501.579,552.505H488.744L482.638,503l18.942,0Z" transform="translate(115.017 180.553)" fill="#ffb7b7"/>
    <path id="Path_215" data-name="Path 215" d="M734.825,704.245l-41.384,0v-.523a16.109,16.109,0,0,1,16.107-16.108h25.278Z" transform="translate(-114.956 41.254)" fill="#2f2e41"/>
    <path id="Path_216" data-name="Path 216" d="M417.879,552.505H405.044L398.938,503l18.943,0Z" transform="translate(128.575 180.553)" fill="#ffb7b7"/>
    <path id="Path_217" data-name="Path 217" d="M647.377,704.245l-41.384,0v-.523A16.109,16.109,0,0,1,622.1,687.612h25.278Z" transform="translate(-100.791 41.254)" fill="#2f2e41"/>
    <path id="Path_218" data-name="Path 218" d="M415.854,312.572l-12.563,28.942L392.928,507.864l26.172-1.047,7.148-79.3L448.3,356.888l12.677,78.741,5.235,69.1,21.656.938,8.63-193.089Z" transform="translate(129.548 211.399)" fill="#2f2e41"/>
    <path id="Path_219" data-name="Path 219" d="M714.925,272.694l-36.411.911-21.377,10.974-1.173,80.964-13.332,55.9s83.3,5.733,94.818-2.642l-13.609-63.86,18.253-69.015Z" transform="translate(-106.726 108.465)" fill="#6c63ff"/>
    <path id="Path_220" data-name="Path 220" d="M654.464,288.035l-3.389-2.289s-14.043,4.209-18.193,22.933c0,0-3.176,9.394-4.57,15.853-1.6,7.408-36.894,75.456-36.894,75.456l21.132,6.062L651.292,343.4Z" transform="translate(-98.43 106.351)" fill="#6c63ff"/>
    <path id="Path_221" data-name="Path 221" d="M759.955,457.96a8.892,8.892,0,0,1,2.374-13.427l-5.91-31.043,15.158,6.317,3.289,28.51a8.941,8.941,0,0,1-14.91,9.643Z" transform="translate(-125.158 85.658)" fill="#ffb7b7"/>
    <path id="Path_222" data-name="Path 222" d="M752.839,289.391l3.889-1.266s12.338,7.918,11.164,27.061c0,0,.462,9.906.021,16.5-.506,7.562,6.281,82.7,6.281,82.7H752.209l-9.422-68.048Z" transform="translate(-122.95 105.966)" fill="#6c63ff"/>
    <path id="Path_223" data-name="Path 223" d="M729.807,227.281a25.24,25.24,0,1,1-25.24-25.24h0a25.178,25.178,0,0,1,25.24,25.115Q729.807,227.219,729.807,227.281Z" transform="translate(-112.67 119.91)" fill="#ffb7b7"/>
    <path id="Path_224" data-name="Path 224" d="M679.217,190.382c2.957-6.358,8.679-5.1,13.683-2.946,6.337-1.406,12.364-5.614,19.192-3.125,6.726,9.782,29.307,6.9,24.5,22.83-.006,3.816,7.181,1.595,5.926,7.845,3.807,12.028-13.742,34.807-23.817,30.01,2.492-4.567,8.184-14.939-.449-15.967-18.571,17.28-1.916-32.9-25.25-18.31C685.278,217.788,674.7,197.454,679.217,190.382Z" transform="translate(-112.477 122.907)" fill="#2f2e41"/>
    <path id="Path_225" data-name="Path 225" d="M764.592,454.276a8.388,8.388,0,0,0,10.039-8.04l63.377-59.652-14.26-11.375-57.921,62.363a8.433,8.433,0,0,0-1.235,16.7Z" transform="translate(-125.376 91.859)" fill="#9f616a"/>
    <path id="Path_226" data-name="Path 226" d="M840.244,393.987l-12.33-14.45a3.761,3.761,0,0,1,.865-5.629l16.052-10.049a10.445,10.445,0,0,1,13.513,15.931l-12.405,14.228a3.761,3.761,0,0,1-5.695-.031Z" transform="translate(-136.594 94.099)" fill="#cbcbcb"/>
    <path id="Path_227" data-name="Path 227" d="M565.138,609.444h-15.5l-7.372-59.768h22.87Z" transform="translate(105.357 172.992)" fill="#9f616a"/>
    <path id="Path_228" data-name="Path 228" d="M798.294,765.579l-49.964,0v-.632A19.448,19.448,0,0,1,767.776,745.5h30.519Z" transform="translate(-123.848 31.877)" fill="#2f2e41"/>
    <path id="Path_229" data-name="Path 229" d="M712.945,609.444H697.45l-7.372-59.768h22.87Z" transform="translate(81.414 172.992)" fill="#9f616a"/>
    <path id="Path_230" data-name="Path 230" d="M946.1,765.579l-49.964,0v-.632A19.448,19.448,0,0,1,915.584,745.5H946.1Z" transform="translate(-147.791 31.877)" fill="#2f2e41"/>
    <path id="Path_231" data-name="Path 231" d="M876.168,424.74l15.619-57.708-20.263-11.39H843.241l-11,11.769s-18.379,12.788-13.931,26.956l7.176,32.271L814.51,477.892l-55.3,76.691-13.091,75.331,51.531,13.509L853.372,533.7,880.39,655.192l50.262-2.528-17.32-147.308s-4.937-44.875-30.817-72.895Z" transform="translate(-123.49 95.029)" fill="#2f2e41"/>
    <path id="Path_232" data-name="Path 232" d="M933.886,480.744a8.388,8.388,0,0,0-1.075-12.817l-12.119-81.76L903.3,391.659,920.71,470.4a8.433,8.433,0,0,0,13.176,10.341Z" transform="translate(-148.95 90.084)" fill="#9f616a"/>
    <path id="Path_233" data-name="Path 233" d="M923.171,395.25l-18.87,2.176a3.761,3.761,0,0,1-4.19-3.857l.611-18.928a10.445,10.445,0,1,1,20.76-2.332l4.891,18.232a3.761,3.761,0,0,1-3.2,4.71Z" transform="translate(-148.434 93.832)" fill="#cbcbcb"/>
    <path id="Path_234" data-name="Path 234" d="M841.146,325.06V300.745a32.582,32.582,0,1,1,65.164,0V325.06a4.382,4.382,0,0,1-4.377,4.377h-56.41A4.382,4.382,0,0,1,841.146,325.06Z" transform="translate(-138.883 109.199)" fill="#2f2e41"/>
    <circle id="Ellipse_129" data-name="Ellipse 129" cx="23.888" cy="23.888" r="23.888" transform="translate(695.729 404.679) rotate(-28.663)" fill="#9f616a"/>
    <path id="Path_235" data-name="Path 235" d="M831.948,304.383a25.8,25.8,0,0,1,25.774-25.774h4.863a25.8,25.8,0,0,1,25.773,25.774v.486H878.081l-3.505-9.815-.7,9.815h-5.311l-1.768-4.952-.354,4.952H831.948Z" transform="translate(-137.393 107.507)" fill="#2f2e41"/>
    <path id="Path_236" data-name="Path 236" d="M869.068,335.949a4.312,4.312,0,0,1-.343-4.578c5.153-9.8,12.369-27.914,2.791-39.083l-.688-.8h27.8v41.744l-25.258,4.456a4.467,4.467,0,0,1-.775.068,4.359,4.359,0,0,1-3.532-1.8Z" transform="translate(-143.269 105.421)" fill="#2f2e41"/>
    <path id="Path_237" data-name="Path 237" d="M551.294,369.213a9.632,9.632,0,0,0-.967,1.166l-45.3-1.108-5.285-9.657-15.617,6.071,7.695,18.006a7.31,7.31,0,0,0,7.6,4.385l51.183-6.183a9.592,9.592,0,1,0,.7-12.678Z" transform="translate(-81.05 94.386)" fill="#ffb7b7"/>
    <path id="Path_238" data-name="Path 238" d="M154.374,557.73h14.9l7.086-57.455H154.371Z" transform="translate(168.192 180.994)" fill="#ffb7b7"/>
    <path id="Path_239" data-name="Path 239" d="M383.519,693.572h29.336a18.7,18.7,0,0,1,18.695,18.693v.609l-48.03,0Z" transform="translate(-64.753 40.289)" fill="#2f2e41"/>
    <path id="Path_240" data-name="Path 240" d="M311.415,556.558l13.7-5.852-16.054-55.621-20.216,8.637Z" transform="translate(146.409 181.834)" fill="#ffb7b7"/>
    <path id="Path_241" data-name="Path 241" d="M543.007,692.905l26.976-11.525h0a18.7,18.7,0,0,1,24.535,9.848l.239.559L550.59,710.656Z" transform="translate(-90.588 42.508)" fill="#2f2e41"/>
    <path id="Path_242" data-name="Path 242" d="M228.527,254.965l1.077,17.455-31.485,3.37-32.946,3.526,9.7-26.5Z" transform="translate(166.442 221.08)" fill="#ffb7b7"/>
    <path id="Path_243" data-name="Path 243" d="M463.18,376.125c-.357-.14-35.92-13.974-57.764-2.662l-.537.278-4.358-21.45-2.483-46.116,16.158-7.635,4.449-9.965,30.3-1.793,6.227,8.54,21.2,6.948L463.7,376.332Z" transform="translate(-67.105 106.183)" fill="#e4e4e4"/>
    <path id="Path_244" data-name="Path 244" d="M477.1,337.528l3.748-29.45,8.534-2.6.144.053c.2.072,4.835,1.848,6.1,8.269,1.219,6.163,10.4,44.518,10.489,44.9l.092.384-21.565,8.628Z" transform="translate(-79.912 103.154)" fill="#e4e4e4"/>
    <path id="Path_245" data-name="Path 245" d="M511.224,640.217l28.706-5.888-45.88-126.6-15.7-43.182s-9.959-34.623-14.459-48.021l-2.715-17.978-64.282,7.115s-17.954,26.367-12.5,69.343l-2.467,161.531,28.706,1.472L434.675,475.1l42.2,89.307s13.3,38.111,22.817,46.371Z" transform="translate(-64.495 88.079)" fill="#2f2e41"/>
    <path id="Path_246" data-name="Path 246" d="M420.554,404.207a9.612,9.612,0,0,0-1.512.083l-29.989-33.974,3.488-10.442-15.07-7.324L369.5,370.435a7.31,7.31,0,0,0,1.951,8.553l39.334,33.329a9.592,9.592,0,1,0,9.77-8.11Z" transform="translate(-62.38 95.529)" fill="#ffb7b7"/>
    <path id="Path_247" data-name="Path 247" d="M375.9,350.676l11.724-33.394c1.318-3.937,2.969-6.328,4.907-7.108a3.028,3.028,0,0,1,2.433-.023l5.257,6.642,4.879,20.5-12.51,29.426Z" transform="translate(-63.518 102.437)" fill="#e4e4e4"/>
    <path id="Path_248" data-name="Path 248" d="M457.775,267.73H406.308a4,4,0,0,1-3.993-3.993V241.553a29.727,29.727,0,1,1,59.454,0v22.184a4,4,0,0,1-3.993,3.993Z" transform="translate(-67.798 118.325)" fill="#2f2e41"/>
    <circle id="Ellipse_130" data-name="Ellipse 130" cx="21.795" cy="21.795" r="21.795" transform="translate(348.558 341.949)" fill="#ffb7b7"/>
    <path id="Path_249" data-name="Path 249" d="M471.7,245.315H440.233l-.323-4.518-1.614,4.518h-4.846l-.64-8.955-3.2,8.955h-9.377v-.444a23.542,23.542,0,0,1,23.515-23.515h4.437A23.542,23.542,0,0,1,471.7,244.871Z" transform="translate(-70.701 116.781)" fill="#2f2e41"/>
    <path id="Path_250" data-name="Path 250" d="M439.2,275.318a4.082,4.082,0,0,1-.707-.062l-23.045-4.066V233.1h25.368l-.628.732c-8.738,10.191-2.155,26.715,2.547,35.658a3.934,3.934,0,0,1-.313,4.177A3.977,3.977,0,0,1,439.2,275.318Z" transform="translate(-69.925 114.878)" fill="#2f2e41"/>
    <circle id="Ellipse_131" data-name="Ellipse 131" cx="20.95" cy="20.95" r="20.95" transform="translate(219.333 279.63)" fill="#f0f0f0"/>
    <circle id="Ellipse_132" data-name="Ellipse 132" cx="20.95" cy="20.95" r="20.95" transform="translate(702.029 262.032)" fill="#f0f0f0"/>
    <circle id="Ellipse_133" data-name="Ellipse 133" cx="15.084" cy="15.084" r="15.084" transform="translate(468.223 326.559)" fill="#f0f0f0"/>
  </g>
</svg>
